G75*
%MOIN*%
%OFA0B0*%
%FSLAX25Y25*%
%IPPOS*%
%LPD*%
%AMOC8*
5,1,8,0,0,1.08239X$1,22.5*
%
%ADD10C,0.01600*%
%ADD11C,0.00000*%
%ADD12OC8,0.05200*%
%ADD13C,0.01040*%
%ADD14C,0.06000*%
%ADD15C,0.05512*%
%ADD16C,0.04000*%
%ADD17R,0.05906X0.05906*%
%ADD18R,0.06496X0.06496*%
D10*
X0003000Y0003000D02*
X0790402Y0003000D01*
X0790402Y0121110D01*
X0003000Y0121110D01*
X0003000Y0003000D01*
D11*
X0008512Y0014811D02*
X0008514Y0014969D01*
X0008520Y0015127D01*
X0008530Y0015285D01*
X0008544Y0015443D01*
X0008562Y0015600D01*
X0008583Y0015757D01*
X0008609Y0015913D01*
X0008639Y0016069D01*
X0008672Y0016224D01*
X0008710Y0016377D01*
X0008751Y0016530D01*
X0008796Y0016682D01*
X0008845Y0016833D01*
X0008898Y0016982D01*
X0008954Y0017130D01*
X0009014Y0017276D01*
X0009078Y0017421D01*
X0009146Y0017564D01*
X0009217Y0017706D01*
X0009291Y0017846D01*
X0009369Y0017983D01*
X0009451Y0018119D01*
X0009535Y0018253D01*
X0009624Y0018384D01*
X0009715Y0018513D01*
X0009810Y0018640D01*
X0009907Y0018765D01*
X0010008Y0018887D01*
X0010112Y0019006D01*
X0010219Y0019123D01*
X0010329Y0019237D01*
X0010442Y0019348D01*
X0010557Y0019457D01*
X0010675Y0019562D01*
X0010796Y0019664D01*
X0010919Y0019764D01*
X0011045Y0019860D01*
X0011173Y0019953D01*
X0011303Y0020043D01*
X0011436Y0020129D01*
X0011571Y0020213D01*
X0011707Y0020292D01*
X0011846Y0020369D01*
X0011987Y0020441D01*
X0012129Y0020511D01*
X0012273Y0020576D01*
X0012419Y0020638D01*
X0012566Y0020696D01*
X0012715Y0020751D01*
X0012865Y0020802D01*
X0013016Y0020849D01*
X0013168Y0020892D01*
X0013321Y0020931D01*
X0013476Y0020967D01*
X0013631Y0020998D01*
X0013787Y0021026D01*
X0013943Y0021050D01*
X0014100Y0021070D01*
X0014258Y0021086D01*
X0014415Y0021098D01*
X0014574Y0021106D01*
X0014732Y0021110D01*
X0014890Y0021110D01*
X0015048Y0021106D01*
X0015207Y0021098D01*
X0015364Y0021086D01*
X0015522Y0021070D01*
X0015679Y0021050D01*
X0015835Y0021026D01*
X0015991Y0020998D01*
X0016146Y0020967D01*
X0016301Y0020931D01*
X0016454Y0020892D01*
X0016606Y0020849D01*
X0016757Y0020802D01*
X0016907Y0020751D01*
X0017056Y0020696D01*
X0017203Y0020638D01*
X0017349Y0020576D01*
X0017493Y0020511D01*
X0017635Y0020441D01*
X0017776Y0020369D01*
X0017915Y0020292D01*
X0018051Y0020213D01*
X0018186Y0020129D01*
X0018319Y0020043D01*
X0018449Y0019953D01*
X0018577Y0019860D01*
X0018703Y0019764D01*
X0018826Y0019664D01*
X0018947Y0019562D01*
X0019065Y0019457D01*
X0019180Y0019348D01*
X0019293Y0019237D01*
X0019403Y0019123D01*
X0019510Y0019006D01*
X0019614Y0018887D01*
X0019715Y0018765D01*
X0019812Y0018640D01*
X0019907Y0018513D01*
X0019998Y0018384D01*
X0020087Y0018253D01*
X0020171Y0018119D01*
X0020253Y0017983D01*
X0020331Y0017846D01*
X0020405Y0017706D01*
X0020476Y0017564D01*
X0020544Y0017421D01*
X0020608Y0017276D01*
X0020668Y0017130D01*
X0020724Y0016982D01*
X0020777Y0016833D01*
X0020826Y0016682D01*
X0020871Y0016530D01*
X0020912Y0016377D01*
X0020950Y0016224D01*
X0020983Y0016069D01*
X0021013Y0015913D01*
X0021039Y0015757D01*
X0021060Y0015600D01*
X0021078Y0015443D01*
X0021092Y0015285D01*
X0021102Y0015127D01*
X0021108Y0014969D01*
X0021110Y0014811D01*
X0021108Y0014653D01*
X0021102Y0014495D01*
X0021092Y0014337D01*
X0021078Y0014179D01*
X0021060Y0014022D01*
X0021039Y0013865D01*
X0021013Y0013709D01*
X0020983Y0013553D01*
X0020950Y0013398D01*
X0020912Y0013245D01*
X0020871Y0013092D01*
X0020826Y0012940D01*
X0020777Y0012789D01*
X0020724Y0012640D01*
X0020668Y0012492D01*
X0020608Y0012346D01*
X0020544Y0012201D01*
X0020476Y0012058D01*
X0020405Y0011916D01*
X0020331Y0011776D01*
X0020253Y0011639D01*
X0020171Y0011503D01*
X0020087Y0011369D01*
X0019998Y0011238D01*
X0019907Y0011109D01*
X0019812Y0010982D01*
X0019715Y0010857D01*
X0019614Y0010735D01*
X0019510Y0010616D01*
X0019403Y0010499D01*
X0019293Y0010385D01*
X0019180Y0010274D01*
X0019065Y0010165D01*
X0018947Y0010060D01*
X0018826Y0009958D01*
X0018703Y0009858D01*
X0018577Y0009762D01*
X0018449Y0009669D01*
X0018319Y0009579D01*
X0018186Y0009493D01*
X0018051Y0009409D01*
X0017915Y0009330D01*
X0017776Y0009253D01*
X0017635Y0009181D01*
X0017493Y0009111D01*
X0017349Y0009046D01*
X0017203Y0008984D01*
X0017056Y0008926D01*
X0016907Y0008871D01*
X0016757Y0008820D01*
X0016606Y0008773D01*
X0016454Y0008730D01*
X0016301Y0008691D01*
X0016146Y0008655D01*
X0015991Y0008624D01*
X0015835Y0008596D01*
X0015679Y0008572D01*
X0015522Y0008552D01*
X0015364Y0008536D01*
X0015207Y0008524D01*
X0015048Y0008516D01*
X0014890Y0008512D01*
X0014732Y0008512D01*
X0014574Y0008516D01*
X0014415Y0008524D01*
X0014258Y0008536D01*
X0014100Y0008552D01*
X0013943Y0008572D01*
X0013787Y0008596D01*
X0013631Y0008624D01*
X0013476Y0008655D01*
X0013321Y0008691D01*
X0013168Y0008730D01*
X0013016Y0008773D01*
X0012865Y0008820D01*
X0012715Y0008871D01*
X0012566Y0008926D01*
X0012419Y0008984D01*
X0012273Y0009046D01*
X0012129Y0009111D01*
X0011987Y0009181D01*
X0011846Y0009253D01*
X0011707Y0009330D01*
X0011571Y0009409D01*
X0011436Y0009493D01*
X0011303Y0009579D01*
X0011173Y0009669D01*
X0011045Y0009762D01*
X0010919Y0009858D01*
X0010796Y0009958D01*
X0010675Y0010060D01*
X0010557Y0010165D01*
X0010442Y0010274D01*
X0010329Y0010385D01*
X0010219Y0010499D01*
X0010112Y0010616D01*
X0010008Y0010735D01*
X0009907Y0010857D01*
X0009810Y0010982D01*
X0009715Y0011109D01*
X0009624Y0011238D01*
X0009535Y0011369D01*
X0009451Y0011503D01*
X0009369Y0011639D01*
X0009291Y0011776D01*
X0009217Y0011916D01*
X0009146Y0012058D01*
X0009078Y0012201D01*
X0009014Y0012346D01*
X0008954Y0012492D01*
X0008898Y0012640D01*
X0008845Y0012789D01*
X0008796Y0012940D01*
X0008751Y0013092D01*
X0008710Y0013245D01*
X0008672Y0013398D01*
X0008639Y0013553D01*
X0008609Y0013709D01*
X0008583Y0013865D01*
X0008562Y0014022D01*
X0008544Y0014179D01*
X0008530Y0014337D01*
X0008520Y0014495D01*
X0008514Y0014653D01*
X0008512Y0014811D01*
X0008512Y0109299D02*
X0008514Y0109457D01*
X0008520Y0109615D01*
X0008530Y0109773D01*
X0008544Y0109931D01*
X0008562Y0110088D01*
X0008583Y0110245D01*
X0008609Y0110401D01*
X0008639Y0110557D01*
X0008672Y0110712D01*
X0008710Y0110865D01*
X0008751Y0111018D01*
X0008796Y0111170D01*
X0008845Y0111321D01*
X0008898Y0111470D01*
X0008954Y0111618D01*
X0009014Y0111764D01*
X0009078Y0111909D01*
X0009146Y0112052D01*
X0009217Y0112194D01*
X0009291Y0112334D01*
X0009369Y0112471D01*
X0009451Y0112607D01*
X0009535Y0112741D01*
X0009624Y0112872D01*
X0009715Y0113001D01*
X0009810Y0113128D01*
X0009907Y0113253D01*
X0010008Y0113375D01*
X0010112Y0113494D01*
X0010219Y0113611D01*
X0010329Y0113725D01*
X0010442Y0113836D01*
X0010557Y0113945D01*
X0010675Y0114050D01*
X0010796Y0114152D01*
X0010919Y0114252D01*
X0011045Y0114348D01*
X0011173Y0114441D01*
X0011303Y0114531D01*
X0011436Y0114617D01*
X0011571Y0114701D01*
X0011707Y0114780D01*
X0011846Y0114857D01*
X0011987Y0114929D01*
X0012129Y0114999D01*
X0012273Y0115064D01*
X0012419Y0115126D01*
X0012566Y0115184D01*
X0012715Y0115239D01*
X0012865Y0115290D01*
X0013016Y0115337D01*
X0013168Y0115380D01*
X0013321Y0115419D01*
X0013476Y0115455D01*
X0013631Y0115486D01*
X0013787Y0115514D01*
X0013943Y0115538D01*
X0014100Y0115558D01*
X0014258Y0115574D01*
X0014415Y0115586D01*
X0014574Y0115594D01*
X0014732Y0115598D01*
X0014890Y0115598D01*
X0015048Y0115594D01*
X0015207Y0115586D01*
X0015364Y0115574D01*
X0015522Y0115558D01*
X0015679Y0115538D01*
X0015835Y0115514D01*
X0015991Y0115486D01*
X0016146Y0115455D01*
X0016301Y0115419D01*
X0016454Y0115380D01*
X0016606Y0115337D01*
X0016757Y0115290D01*
X0016907Y0115239D01*
X0017056Y0115184D01*
X0017203Y0115126D01*
X0017349Y0115064D01*
X0017493Y0114999D01*
X0017635Y0114929D01*
X0017776Y0114857D01*
X0017915Y0114780D01*
X0018051Y0114701D01*
X0018186Y0114617D01*
X0018319Y0114531D01*
X0018449Y0114441D01*
X0018577Y0114348D01*
X0018703Y0114252D01*
X0018826Y0114152D01*
X0018947Y0114050D01*
X0019065Y0113945D01*
X0019180Y0113836D01*
X0019293Y0113725D01*
X0019403Y0113611D01*
X0019510Y0113494D01*
X0019614Y0113375D01*
X0019715Y0113253D01*
X0019812Y0113128D01*
X0019907Y0113001D01*
X0019998Y0112872D01*
X0020087Y0112741D01*
X0020171Y0112607D01*
X0020253Y0112471D01*
X0020331Y0112334D01*
X0020405Y0112194D01*
X0020476Y0112052D01*
X0020544Y0111909D01*
X0020608Y0111764D01*
X0020668Y0111618D01*
X0020724Y0111470D01*
X0020777Y0111321D01*
X0020826Y0111170D01*
X0020871Y0111018D01*
X0020912Y0110865D01*
X0020950Y0110712D01*
X0020983Y0110557D01*
X0021013Y0110401D01*
X0021039Y0110245D01*
X0021060Y0110088D01*
X0021078Y0109931D01*
X0021092Y0109773D01*
X0021102Y0109615D01*
X0021108Y0109457D01*
X0021110Y0109299D01*
X0021108Y0109141D01*
X0021102Y0108983D01*
X0021092Y0108825D01*
X0021078Y0108667D01*
X0021060Y0108510D01*
X0021039Y0108353D01*
X0021013Y0108197D01*
X0020983Y0108041D01*
X0020950Y0107886D01*
X0020912Y0107733D01*
X0020871Y0107580D01*
X0020826Y0107428D01*
X0020777Y0107277D01*
X0020724Y0107128D01*
X0020668Y0106980D01*
X0020608Y0106834D01*
X0020544Y0106689D01*
X0020476Y0106546D01*
X0020405Y0106404D01*
X0020331Y0106264D01*
X0020253Y0106127D01*
X0020171Y0105991D01*
X0020087Y0105857D01*
X0019998Y0105726D01*
X0019907Y0105597D01*
X0019812Y0105470D01*
X0019715Y0105345D01*
X0019614Y0105223D01*
X0019510Y0105104D01*
X0019403Y0104987D01*
X0019293Y0104873D01*
X0019180Y0104762D01*
X0019065Y0104653D01*
X0018947Y0104548D01*
X0018826Y0104446D01*
X0018703Y0104346D01*
X0018577Y0104250D01*
X0018449Y0104157D01*
X0018319Y0104067D01*
X0018186Y0103981D01*
X0018051Y0103897D01*
X0017915Y0103818D01*
X0017776Y0103741D01*
X0017635Y0103669D01*
X0017493Y0103599D01*
X0017349Y0103534D01*
X0017203Y0103472D01*
X0017056Y0103414D01*
X0016907Y0103359D01*
X0016757Y0103308D01*
X0016606Y0103261D01*
X0016454Y0103218D01*
X0016301Y0103179D01*
X0016146Y0103143D01*
X0015991Y0103112D01*
X0015835Y0103084D01*
X0015679Y0103060D01*
X0015522Y0103040D01*
X0015364Y0103024D01*
X0015207Y0103012D01*
X0015048Y0103004D01*
X0014890Y0103000D01*
X0014732Y0103000D01*
X0014574Y0103004D01*
X0014415Y0103012D01*
X0014258Y0103024D01*
X0014100Y0103040D01*
X0013943Y0103060D01*
X0013787Y0103084D01*
X0013631Y0103112D01*
X0013476Y0103143D01*
X0013321Y0103179D01*
X0013168Y0103218D01*
X0013016Y0103261D01*
X0012865Y0103308D01*
X0012715Y0103359D01*
X0012566Y0103414D01*
X0012419Y0103472D01*
X0012273Y0103534D01*
X0012129Y0103599D01*
X0011987Y0103669D01*
X0011846Y0103741D01*
X0011707Y0103818D01*
X0011571Y0103897D01*
X0011436Y0103981D01*
X0011303Y0104067D01*
X0011173Y0104157D01*
X0011045Y0104250D01*
X0010919Y0104346D01*
X0010796Y0104446D01*
X0010675Y0104548D01*
X0010557Y0104653D01*
X0010442Y0104762D01*
X0010329Y0104873D01*
X0010219Y0104987D01*
X0010112Y0105104D01*
X0010008Y0105223D01*
X0009907Y0105345D01*
X0009810Y0105470D01*
X0009715Y0105597D01*
X0009624Y0105726D01*
X0009535Y0105857D01*
X0009451Y0105991D01*
X0009369Y0106127D01*
X0009291Y0106264D01*
X0009217Y0106404D01*
X0009146Y0106546D01*
X0009078Y0106689D01*
X0009014Y0106834D01*
X0008954Y0106980D01*
X0008898Y0107128D01*
X0008845Y0107277D01*
X0008796Y0107428D01*
X0008751Y0107580D01*
X0008710Y0107733D01*
X0008672Y0107886D01*
X0008639Y0108041D01*
X0008609Y0108197D01*
X0008583Y0108353D01*
X0008562Y0108510D01*
X0008544Y0108667D01*
X0008530Y0108825D01*
X0008520Y0108983D01*
X0008514Y0109141D01*
X0008512Y0109299D01*
X0772292Y0109299D02*
X0772294Y0109457D01*
X0772300Y0109615D01*
X0772310Y0109773D01*
X0772324Y0109931D01*
X0772342Y0110088D01*
X0772363Y0110245D01*
X0772389Y0110401D01*
X0772419Y0110557D01*
X0772452Y0110712D01*
X0772490Y0110865D01*
X0772531Y0111018D01*
X0772576Y0111170D01*
X0772625Y0111321D01*
X0772678Y0111470D01*
X0772734Y0111618D01*
X0772794Y0111764D01*
X0772858Y0111909D01*
X0772926Y0112052D01*
X0772997Y0112194D01*
X0773071Y0112334D01*
X0773149Y0112471D01*
X0773231Y0112607D01*
X0773315Y0112741D01*
X0773404Y0112872D01*
X0773495Y0113001D01*
X0773590Y0113128D01*
X0773687Y0113253D01*
X0773788Y0113375D01*
X0773892Y0113494D01*
X0773999Y0113611D01*
X0774109Y0113725D01*
X0774222Y0113836D01*
X0774337Y0113945D01*
X0774455Y0114050D01*
X0774576Y0114152D01*
X0774699Y0114252D01*
X0774825Y0114348D01*
X0774953Y0114441D01*
X0775083Y0114531D01*
X0775216Y0114617D01*
X0775351Y0114701D01*
X0775487Y0114780D01*
X0775626Y0114857D01*
X0775767Y0114929D01*
X0775909Y0114999D01*
X0776053Y0115064D01*
X0776199Y0115126D01*
X0776346Y0115184D01*
X0776495Y0115239D01*
X0776645Y0115290D01*
X0776796Y0115337D01*
X0776948Y0115380D01*
X0777101Y0115419D01*
X0777256Y0115455D01*
X0777411Y0115486D01*
X0777567Y0115514D01*
X0777723Y0115538D01*
X0777880Y0115558D01*
X0778038Y0115574D01*
X0778195Y0115586D01*
X0778354Y0115594D01*
X0778512Y0115598D01*
X0778670Y0115598D01*
X0778828Y0115594D01*
X0778987Y0115586D01*
X0779144Y0115574D01*
X0779302Y0115558D01*
X0779459Y0115538D01*
X0779615Y0115514D01*
X0779771Y0115486D01*
X0779926Y0115455D01*
X0780081Y0115419D01*
X0780234Y0115380D01*
X0780386Y0115337D01*
X0780537Y0115290D01*
X0780687Y0115239D01*
X0780836Y0115184D01*
X0780983Y0115126D01*
X0781129Y0115064D01*
X0781273Y0114999D01*
X0781415Y0114929D01*
X0781556Y0114857D01*
X0781695Y0114780D01*
X0781831Y0114701D01*
X0781966Y0114617D01*
X0782099Y0114531D01*
X0782229Y0114441D01*
X0782357Y0114348D01*
X0782483Y0114252D01*
X0782606Y0114152D01*
X0782727Y0114050D01*
X0782845Y0113945D01*
X0782960Y0113836D01*
X0783073Y0113725D01*
X0783183Y0113611D01*
X0783290Y0113494D01*
X0783394Y0113375D01*
X0783495Y0113253D01*
X0783592Y0113128D01*
X0783687Y0113001D01*
X0783778Y0112872D01*
X0783867Y0112741D01*
X0783951Y0112607D01*
X0784033Y0112471D01*
X0784111Y0112334D01*
X0784185Y0112194D01*
X0784256Y0112052D01*
X0784324Y0111909D01*
X0784388Y0111764D01*
X0784448Y0111618D01*
X0784504Y0111470D01*
X0784557Y0111321D01*
X0784606Y0111170D01*
X0784651Y0111018D01*
X0784692Y0110865D01*
X0784730Y0110712D01*
X0784763Y0110557D01*
X0784793Y0110401D01*
X0784819Y0110245D01*
X0784840Y0110088D01*
X0784858Y0109931D01*
X0784872Y0109773D01*
X0784882Y0109615D01*
X0784888Y0109457D01*
X0784890Y0109299D01*
X0784888Y0109141D01*
X0784882Y0108983D01*
X0784872Y0108825D01*
X0784858Y0108667D01*
X0784840Y0108510D01*
X0784819Y0108353D01*
X0784793Y0108197D01*
X0784763Y0108041D01*
X0784730Y0107886D01*
X0784692Y0107733D01*
X0784651Y0107580D01*
X0784606Y0107428D01*
X0784557Y0107277D01*
X0784504Y0107128D01*
X0784448Y0106980D01*
X0784388Y0106834D01*
X0784324Y0106689D01*
X0784256Y0106546D01*
X0784185Y0106404D01*
X0784111Y0106264D01*
X0784033Y0106127D01*
X0783951Y0105991D01*
X0783867Y0105857D01*
X0783778Y0105726D01*
X0783687Y0105597D01*
X0783592Y0105470D01*
X0783495Y0105345D01*
X0783394Y0105223D01*
X0783290Y0105104D01*
X0783183Y0104987D01*
X0783073Y0104873D01*
X0782960Y0104762D01*
X0782845Y0104653D01*
X0782727Y0104548D01*
X0782606Y0104446D01*
X0782483Y0104346D01*
X0782357Y0104250D01*
X0782229Y0104157D01*
X0782099Y0104067D01*
X0781966Y0103981D01*
X0781831Y0103897D01*
X0781695Y0103818D01*
X0781556Y0103741D01*
X0781415Y0103669D01*
X0781273Y0103599D01*
X0781129Y0103534D01*
X0780983Y0103472D01*
X0780836Y0103414D01*
X0780687Y0103359D01*
X0780537Y0103308D01*
X0780386Y0103261D01*
X0780234Y0103218D01*
X0780081Y0103179D01*
X0779926Y0103143D01*
X0779771Y0103112D01*
X0779615Y0103084D01*
X0779459Y0103060D01*
X0779302Y0103040D01*
X0779144Y0103024D01*
X0778987Y0103012D01*
X0778828Y0103004D01*
X0778670Y0103000D01*
X0778512Y0103000D01*
X0778354Y0103004D01*
X0778195Y0103012D01*
X0778038Y0103024D01*
X0777880Y0103040D01*
X0777723Y0103060D01*
X0777567Y0103084D01*
X0777411Y0103112D01*
X0777256Y0103143D01*
X0777101Y0103179D01*
X0776948Y0103218D01*
X0776796Y0103261D01*
X0776645Y0103308D01*
X0776495Y0103359D01*
X0776346Y0103414D01*
X0776199Y0103472D01*
X0776053Y0103534D01*
X0775909Y0103599D01*
X0775767Y0103669D01*
X0775626Y0103741D01*
X0775487Y0103818D01*
X0775351Y0103897D01*
X0775216Y0103981D01*
X0775083Y0104067D01*
X0774953Y0104157D01*
X0774825Y0104250D01*
X0774699Y0104346D01*
X0774576Y0104446D01*
X0774455Y0104548D01*
X0774337Y0104653D01*
X0774222Y0104762D01*
X0774109Y0104873D01*
X0773999Y0104987D01*
X0773892Y0105104D01*
X0773788Y0105223D01*
X0773687Y0105345D01*
X0773590Y0105470D01*
X0773495Y0105597D01*
X0773404Y0105726D01*
X0773315Y0105857D01*
X0773231Y0105991D01*
X0773149Y0106127D01*
X0773071Y0106264D01*
X0772997Y0106404D01*
X0772926Y0106546D01*
X0772858Y0106689D01*
X0772794Y0106834D01*
X0772734Y0106980D01*
X0772678Y0107128D01*
X0772625Y0107277D01*
X0772576Y0107428D01*
X0772531Y0107580D01*
X0772490Y0107733D01*
X0772452Y0107886D01*
X0772419Y0108041D01*
X0772389Y0108197D01*
X0772363Y0108353D01*
X0772342Y0108510D01*
X0772324Y0108667D01*
X0772310Y0108825D01*
X0772300Y0108983D01*
X0772294Y0109141D01*
X0772292Y0109299D01*
X0772292Y0014811D02*
X0772294Y0014969D01*
X0772300Y0015127D01*
X0772310Y0015285D01*
X0772324Y0015443D01*
X0772342Y0015600D01*
X0772363Y0015757D01*
X0772389Y0015913D01*
X0772419Y0016069D01*
X0772452Y0016224D01*
X0772490Y0016377D01*
X0772531Y0016530D01*
X0772576Y0016682D01*
X0772625Y0016833D01*
X0772678Y0016982D01*
X0772734Y0017130D01*
X0772794Y0017276D01*
X0772858Y0017421D01*
X0772926Y0017564D01*
X0772997Y0017706D01*
X0773071Y0017846D01*
X0773149Y0017983D01*
X0773231Y0018119D01*
X0773315Y0018253D01*
X0773404Y0018384D01*
X0773495Y0018513D01*
X0773590Y0018640D01*
X0773687Y0018765D01*
X0773788Y0018887D01*
X0773892Y0019006D01*
X0773999Y0019123D01*
X0774109Y0019237D01*
X0774222Y0019348D01*
X0774337Y0019457D01*
X0774455Y0019562D01*
X0774576Y0019664D01*
X0774699Y0019764D01*
X0774825Y0019860D01*
X0774953Y0019953D01*
X0775083Y0020043D01*
X0775216Y0020129D01*
X0775351Y0020213D01*
X0775487Y0020292D01*
X0775626Y0020369D01*
X0775767Y0020441D01*
X0775909Y0020511D01*
X0776053Y0020576D01*
X0776199Y0020638D01*
X0776346Y0020696D01*
X0776495Y0020751D01*
X0776645Y0020802D01*
X0776796Y0020849D01*
X0776948Y0020892D01*
X0777101Y0020931D01*
X0777256Y0020967D01*
X0777411Y0020998D01*
X0777567Y0021026D01*
X0777723Y0021050D01*
X0777880Y0021070D01*
X0778038Y0021086D01*
X0778195Y0021098D01*
X0778354Y0021106D01*
X0778512Y0021110D01*
X0778670Y0021110D01*
X0778828Y0021106D01*
X0778987Y0021098D01*
X0779144Y0021086D01*
X0779302Y0021070D01*
X0779459Y0021050D01*
X0779615Y0021026D01*
X0779771Y0020998D01*
X0779926Y0020967D01*
X0780081Y0020931D01*
X0780234Y0020892D01*
X0780386Y0020849D01*
X0780537Y0020802D01*
X0780687Y0020751D01*
X0780836Y0020696D01*
X0780983Y0020638D01*
X0781129Y0020576D01*
X0781273Y0020511D01*
X0781415Y0020441D01*
X0781556Y0020369D01*
X0781695Y0020292D01*
X0781831Y0020213D01*
X0781966Y0020129D01*
X0782099Y0020043D01*
X0782229Y0019953D01*
X0782357Y0019860D01*
X0782483Y0019764D01*
X0782606Y0019664D01*
X0782727Y0019562D01*
X0782845Y0019457D01*
X0782960Y0019348D01*
X0783073Y0019237D01*
X0783183Y0019123D01*
X0783290Y0019006D01*
X0783394Y0018887D01*
X0783495Y0018765D01*
X0783592Y0018640D01*
X0783687Y0018513D01*
X0783778Y0018384D01*
X0783867Y0018253D01*
X0783951Y0018119D01*
X0784033Y0017983D01*
X0784111Y0017846D01*
X0784185Y0017706D01*
X0784256Y0017564D01*
X0784324Y0017421D01*
X0784388Y0017276D01*
X0784448Y0017130D01*
X0784504Y0016982D01*
X0784557Y0016833D01*
X0784606Y0016682D01*
X0784651Y0016530D01*
X0784692Y0016377D01*
X0784730Y0016224D01*
X0784763Y0016069D01*
X0784793Y0015913D01*
X0784819Y0015757D01*
X0784840Y0015600D01*
X0784858Y0015443D01*
X0784872Y0015285D01*
X0784882Y0015127D01*
X0784888Y0014969D01*
X0784890Y0014811D01*
X0784888Y0014653D01*
X0784882Y0014495D01*
X0784872Y0014337D01*
X0784858Y0014179D01*
X0784840Y0014022D01*
X0784819Y0013865D01*
X0784793Y0013709D01*
X0784763Y0013553D01*
X0784730Y0013398D01*
X0784692Y0013245D01*
X0784651Y0013092D01*
X0784606Y0012940D01*
X0784557Y0012789D01*
X0784504Y0012640D01*
X0784448Y0012492D01*
X0784388Y0012346D01*
X0784324Y0012201D01*
X0784256Y0012058D01*
X0784185Y0011916D01*
X0784111Y0011776D01*
X0784033Y0011639D01*
X0783951Y0011503D01*
X0783867Y0011369D01*
X0783778Y0011238D01*
X0783687Y0011109D01*
X0783592Y0010982D01*
X0783495Y0010857D01*
X0783394Y0010735D01*
X0783290Y0010616D01*
X0783183Y0010499D01*
X0783073Y0010385D01*
X0782960Y0010274D01*
X0782845Y0010165D01*
X0782727Y0010060D01*
X0782606Y0009958D01*
X0782483Y0009858D01*
X0782357Y0009762D01*
X0782229Y0009669D01*
X0782099Y0009579D01*
X0781966Y0009493D01*
X0781831Y0009409D01*
X0781695Y0009330D01*
X0781556Y0009253D01*
X0781415Y0009181D01*
X0781273Y0009111D01*
X0781129Y0009046D01*
X0780983Y0008984D01*
X0780836Y0008926D01*
X0780687Y0008871D01*
X0780537Y0008820D01*
X0780386Y0008773D01*
X0780234Y0008730D01*
X0780081Y0008691D01*
X0779926Y0008655D01*
X0779771Y0008624D01*
X0779615Y0008596D01*
X0779459Y0008572D01*
X0779302Y0008552D01*
X0779144Y0008536D01*
X0778987Y0008524D01*
X0778828Y0008516D01*
X0778670Y0008512D01*
X0778512Y0008512D01*
X0778354Y0008516D01*
X0778195Y0008524D01*
X0778038Y0008536D01*
X0777880Y0008552D01*
X0777723Y0008572D01*
X0777567Y0008596D01*
X0777411Y0008624D01*
X0777256Y0008655D01*
X0777101Y0008691D01*
X0776948Y0008730D01*
X0776796Y0008773D01*
X0776645Y0008820D01*
X0776495Y0008871D01*
X0776346Y0008926D01*
X0776199Y0008984D01*
X0776053Y0009046D01*
X0775909Y0009111D01*
X0775767Y0009181D01*
X0775626Y0009253D01*
X0775487Y0009330D01*
X0775351Y0009409D01*
X0775216Y0009493D01*
X0775083Y0009579D01*
X0774953Y0009669D01*
X0774825Y0009762D01*
X0774699Y0009858D01*
X0774576Y0009958D01*
X0774455Y0010060D01*
X0774337Y0010165D01*
X0774222Y0010274D01*
X0774109Y0010385D01*
X0773999Y0010499D01*
X0773892Y0010616D01*
X0773788Y0010735D01*
X0773687Y0010857D01*
X0773590Y0010982D01*
X0773495Y0011109D01*
X0773404Y0011238D01*
X0773315Y0011369D01*
X0773231Y0011503D01*
X0773149Y0011639D01*
X0773071Y0011776D01*
X0772997Y0011916D01*
X0772926Y0012058D01*
X0772858Y0012201D01*
X0772794Y0012346D01*
X0772734Y0012492D01*
X0772678Y0012640D01*
X0772625Y0012789D01*
X0772576Y0012940D01*
X0772531Y0013092D01*
X0772490Y0013245D01*
X0772452Y0013398D01*
X0772419Y0013553D01*
X0772389Y0013709D01*
X0772363Y0013865D01*
X0772342Y0014022D01*
X0772324Y0014179D01*
X0772310Y0014337D01*
X0772300Y0014495D01*
X0772294Y0014653D01*
X0772292Y0014811D01*
D12*
X0774969Y0030559D03*
X0734969Y0030559D03*
X0715913Y0030559D03*
X0675913Y0030559D03*
X0656858Y0030559D03*
X0616858Y0030559D03*
X0429181Y0010559D03*
X0358315Y0010559D03*
X0381937Y0025559D03*
X0381937Y0035559D03*
X0358315Y0050559D03*
X0429181Y0050559D03*
X0381937Y0070835D03*
X0381937Y0080835D03*
X0176543Y0099457D03*
X0136543Y0099457D03*
X0117488Y0099457D03*
X0077488Y0099457D03*
X0092488Y0077803D03*
X0102488Y0077803D03*
X0151543Y0077803D03*
X0161543Y0077803D03*
X0043433Y0077803D03*
X0033433Y0077803D03*
X0018433Y0030559D03*
X0058433Y0030559D03*
X0077488Y0030559D03*
X0117488Y0030559D03*
X0136543Y0030559D03*
X0176543Y0030559D03*
X0616858Y0099457D03*
X0656858Y0099457D03*
X0675913Y0099457D03*
X0715913Y0099457D03*
X0700913Y0077803D03*
X0690913Y0077803D03*
X0641858Y0077803D03*
X0631858Y0077803D03*
X0749969Y0077803D03*
X0759969Y0077803D03*
D13*
X0774598Y0090908D02*
X0775118Y0090388D01*
X0773531Y0089714D01*
X0771935Y0090359D01*
X0771261Y0091946D01*
X0771906Y0093542D01*
X0773493Y0094216D01*
X0775089Y0093571D01*
X0775763Y0091984D01*
X0775118Y0090388D01*
X0774515Y0090980D01*
X0773523Y0090559D01*
X0772527Y0090962D01*
X0772106Y0091954D01*
X0772509Y0092950D01*
X0773501Y0093371D01*
X0774497Y0092968D01*
X0774918Y0091976D01*
X0774515Y0090980D01*
X0773913Y0091571D01*
X0773516Y0091403D01*
X0773118Y0091564D01*
X0772950Y0091961D01*
X0773111Y0092359D01*
X0773508Y0092527D01*
X0773906Y0092366D01*
X0774074Y0091969D01*
X0773913Y0091571D01*
X0737511Y0105892D02*
X0738031Y0105372D01*
X0736444Y0104698D01*
X0734848Y0105343D01*
X0734174Y0106930D01*
X0734819Y0108526D01*
X0736406Y0109200D01*
X0738002Y0108555D01*
X0738676Y0106968D01*
X0738031Y0105372D01*
X0737428Y0105964D01*
X0736436Y0105543D01*
X0735440Y0105946D01*
X0735019Y0106938D01*
X0735422Y0107934D01*
X0736414Y0108355D01*
X0737410Y0107952D01*
X0737831Y0106960D01*
X0737428Y0105964D01*
X0736826Y0106555D01*
X0736429Y0106387D01*
X0736031Y0106548D01*
X0735863Y0106945D01*
X0736024Y0107343D01*
X0736421Y0107511D01*
X0736819Y0107350D01*
X0736987Y0106953D01*
X0736826Y0106555D01*
X0451756Y0078128D02*
X0452276Y0078648D01*
X0451830Y0076984D01*
X0450339Y0076123D01*
X0448675Y0076569D01*
X0447814Y0078060D01*
X0448260Y0079724D01*
X0449751Y0080585D01*
X0451415Y0080139D01*
X0452276Y0078648D01*
X0451439Y0078538D01*
X0451160Y0077498D01*
X0450229Y0076960D01*
X0449189Y0077239D01*
X0448651Y0078170D01*
X0448930Y0079210D01*
X0449861Y0079748D01*
X0450901Y0079469D01*
X0451439Y0078538D01*
X0450602Y0078427D01*
X0450491Y0078012D01*
X0450118Y0077797D01*
X0449703Y0077908D01*
X0449488Y0078281D01*
X0449599Y0078696D01*
X0449972Y0078911D01*
X0450387Y0078800D01*
X0450602Y0078427D01*
X0346908Y0093413D02*
X0347428Y0092893D01*
X0345764Y0093339D01*
X0344903Y0094830D01*
X0345349Y0096494D01*
X0346840Y0097355D01*
X0348504Y0096909D01*
X0349365Y0095418D01*
X0348919Y0093754D01*
X0347428Y0092893D01*
X0347318Y0093730D01*
X0346278Y0094009D01*
X0345740Y0094940D01*
X0346019Y0095980D01*
X0346950Y0096518D01*
X0347990Y0096239D01*
X0348528Y0095308D01*
X0348249Y0094268D01*
X0347318Y0093730D01*
X0347207Y0094567D01*
X0346792Y0094678D01*
X0346577Y0095051D01*
X0346688Y0095466D01*
X0347061Y0095681D01*
X0347476Y0095570D01*
X0347691Y0095197D01*
X0347580Y0094782D01*
X0347207Y0094567D01*
X0366908Y0058772D02*
X0367428Y0058252D01*
X0365764Y0058698D01*
X0364903Y0060189D01*
X0365349Y0061853D01*
X0366840Y0062714D01*
X0368504Y0062268D01*
X0369365Y0060777D01*
X0368919Y0059113D01*
X0367428Y0058252D01*
X0367318Y0059089D01*
X0366278Y0059368D01*
X0365740Y0060299D01*
X0366019Y0061339D01*
X0366950Y0061877D01*
X0367990Y0061598D01*
X0368528Y0060667D01*
X0368249Y0059627D01*
X0367318Y0059089D01*
X0367207Y0059926D01*
X0366792Y0060037D01*
X0366577Y0060410D01*
X0366688Y0060825D01*
X0367061Y0061040D01*
X0367476Y0060929D01*
X0367691Y0060556D01*
X0367580Y0060141D01*
X0367207Y0059926D01*
X0417115Y0058128D02*
X0417635Y0058648D01*
X0417189Y0056984D01*
X0415698Y0056123D01*
X0414034Y0056569D01*
X0413173Y0058060D01*
X0413619Y0059724D01*
X0415110Y0060585D01*
X0416774Y0060139D01*
X0417635Y0058648D01*
X0416798Y0058538D01*
X0416519Y0057498D01*
X0415588Y0056960D01*
X0414548Y0057239D01*
X0414010Y0058170D01*
X0414289Y0059210D01*
X0415220Y0059748D01*
X0416260Y0059469D01*
X0416798Y0058538D01*
X0415961Y0058427D01*
X0415850Y0058012D01*
X0415477Y0057797D01*
X0415062Y0057908D01*
X0414847Y0058281D01*
X0414958Y0058696D01*
X0415331Y0058911D01*
X0415746Y0058800D01*
X0415961Y0058427D01*
X0060137Y0101996D02*
X0060657Y0101476D01*
X0059928Y0099913D01*
X0058311Y0099324D01*
X0056748Y0100053D01*
X0056159Y0101670D01*
X0056888Y0103233D01*
X0058505Y0103822D01*
X0060068Y0103093D01*
X0060657Y0101476D01*
X0059813Y0101513D01*
X0059358Y0100536D01*
X0058348Y0100168D01*
X0057371Y0100623D01*
X0057003Y0101633D01*
X0057458Y0102610D01*
X0058468Y0102978D01*
X0059445Y0102523D01*
X0059813Y0101513D01*
X0058970Y0101549D01*
X0058787Y0101158D01*
X0058384Y0101011D01*
X0057993Y0101194D01*
X0057846Y0101597D01*
X0058029Y0101988D01*
X0058432Y0102135D01*
X0058823Y0101952D01*
X0058970Y0101549D01*
X0022549Y0088315D02*
X0023069Y0087795D01*
X0022340Y0086232D01*
X0020723Y0085643D01*
X0019160Y0086372D01*
X0018571Y0087989D01*
X0019300Y0089552D01*
X0020917Y0090141D01*
X0022480Y0089412D01*
X0023069Y0087795D01*
X0022225Y0087832D01*
X0021770Y0086855D01*
X0020760Y0086487D01*
X0019783Y0086942D01*
X0019415Y0087952D01*
X0019870Y0088929D01*
X0020880Y0089297D01*
X0021857Y0088842D01*
X0022225Y0087832D01*
X0021382Y0087868D01*
X0021199Y0087477D01*
X0020796Y0087330D01*
X0020405Y0087513D01*
X0020258Y0087916D01*
X0020441Y0088307D01*
X0020844Y0088454D01*
X0021235Y0088271D01*
X0021382Y0087868D01*
D14*
X0461937Y0080803D02*
X0461937Y0074803D01*
X0471937Y0074803D02*
X0471937Y0080803D01*
X0481937Y0080803D02*
X0481937Y0074803D01*
X0491937Y0074803D02*
X0491937Y0080803D01*
X0501937Y0080803D02*
X0501937Y0074803D01*
X0511937Y0074803D02*
X0511937Y0080803D01*
X0521937Y0080803D02*
X0521937Y0074803D01*
X0531937Y0074803D02*
X0531937Y0080803D01*
X0541937Y0080803D02*
X0541937Y0074803D01*
X0551937Y0074803D02*
X0551937Y0080803D01*
D15*
X0407528Y0085835D03*
X0407528Y0065835D03*
X0407528Y0040559D03*
X0407528Y0020559D03*
X0626858Y0052213D03*
X0646858Y0052213D03*
X0685913Y0054181D03*
X0705913Y0054181D03*
X0744969Y0054181D03*
X0764969Y0054181D03*
X0166543Y0052213D03*
X0146543Y0052213D03*
X0107488Y0052213D03*
X0087488Y0052213D03*
X0048433Y0052213D03*
X0028433Y0052213D03*
D16*
X0018748Y0042528D01*
X0018748Y0030559D01*
X0018433Y0030559D01*
X0036150Y0012843D01*
X0219535Y0012843D01*
X0310087Y0103394D01*
X0460480Y0103394D01*
X0471898Y0091976D01*
X0471898Y0077843D01*
X0471937Y0077803D01*
X0466137Y0078357D02*
X0406838Y0078357D01*
X0408850Y0080369D02*
X0410675Y0081125D01*
X0412238Y0082687D01*
X0412994Y0084512D01*
X0420776Y0092294D01*
X0440848Y0092294D01*
X0441375Y0091768D01*
X0442404Y0091342D01*
X0449423Y0091342D01*
X0450452Y0091768D01*
X0451240Y0092556D01*
X0451666Y0093585D01*
X0451666Y0098594D01*
X0458492Y0098594D01*
X0467098Y0089988D01*
X0467098Y0084166D01*
X0467020Y0084089D01*
X0466137Y0081957D01*
X0466137Y0073649D01*
X0467020Y0071518D01*
X0468652Y0069886D01*
X0470783Y0069003D01*
X0473091Y0069003D01*
X0475222Y0069886D01*
X0476854Y0071518D01*
X0476937Y0071718D01*
X0477020Y0071518D01*
X0478652Y0069886D01*
X0480783Y0069003D01*
X0483091Y0069003D01*
X0485222Y0069886D01*
X0486854Y0071518D01*
X0486937Y0071718D01*
X0487020Y0071518D01*
X0488652Y0069886D01*
X0490783Y0069003D01*
X0493091Y0069003D01*
X0495222Y0069886D01*
X0496854Y0071518D01*
X0496937Y0071718D01*
X0497019Y0071520D01*
X0497019Y0066799D01*
X0493374Y0063154D01*
X0418354Y0063154D01*
X0417040Y0063506D01*
X0412713Y0067833D01*
X0412238Y0068982D01*
X0410675Y0070545D01*
X0408633Y0071391D01*
X0406422Y0071391D01*
X0404380Y0070545D01*
X0402817Y0068982D01*
X0401972Y0066940D01*
X0401972Y0064730D01*
X0402817Y0062687D01*
X0404380Y0061125D01*
X0406422Y0060279D01*
X0406691Y0060279D01*
X0409924Y0057046D01*
X0411846Y0053717D01*
X0416167Y0052559D01*
X0417890Y0053554D01*
X0493617Y0053554D01*
X0455421Y0015359D01*
X0432018Y0015359D01*
X0431418Y0015959D01*
X0426944Y0015959D01*
X0426344Y0015359D01*
X0419516Y0015359D01*
X0412994Y0021881D01*
X0412238Y0023706D01*
X0410675Y0025269D01*
X0408633Y0026115D01*
X0406422Y0026115D01*
X0404380Y0025269D01*
X0402817Y0023706D01*
X0401972Y0021664D01*
X0401972Y0019454D01*
X0402817Y0017412D01*
X0404380Y0015849D01*
X0406205Y0015093D01*
X0411498Y0009800D01*
X0383557Y0009800D01*
X0389203Y0015447D01*
X0397227Y0023470D01*
X0408850Y0035093D01*
X0410675Y0035849D01*
X0412238Y0037412D01*
X0413083Y0039454D01*
X0413083Y0041664D01*
X0412238Y0043706D01*
X0410675Y0045269D01*
X0408633Y0046115D01*
X0406422Y0046115D01*
X0404380Y0045269D01*
X0402817Y0043706D01*
X0402062Y0041881D01*
X0397957Y0037777D01*
X0397957Y0069476D01*
X0408850Y0080369D01*
X0411905Y0082355D02*
X0466302Y0082355D01*
X0467098Y0086354D02*
X0414835Y0086354D01*
X0407528Y0085835D02*
X0393157Y0071465D01*
X0393157Y0026189D01*
X0386484Y0019516D01*
X0377528Y0010559D01*
X0358315Y0010559D01*
X0352915Y0010382D02*
X0223863Y0010382D01*
X0223281Y0009800D02*
X0303251Y0089770D01*
X0303251Y0085809D01*
X0303677Y0084780D01*
X0304465Y0083992D01*
X0305494Y0083566D01*
X0313104Y0083566D01*
X0314133Y0083992D01*
X0314921Y0084780D01*
X0315347Y0085809D01*
X0315347Y0088874D01*
X0316797Y0090324D01*
X0344184Y0090324D01*
X0347897Y0089329D01*
X0351771Y0091565D01*
X0351966Y0092294D01*
X0407199Y0092294D01*
X0406205Y0091301D01*
X0404380Y0090545D01*
X0402817Y0088982D01*
X0402062Y0087157D01*
X0390438Y0075534D01*
X0389088Y0074184D01*
X0388357Y0072419D01*
X0388357Y0028177D01*
X0382415Y0022235D01*
X0382415Y0022235D01*
X0375539Y0015359D01*
X0361152Y0015359D01*
X0360552Y0015959D01*
X0356078Y0015959D01*
X0352915Y0012796D01*
X0352915Y0009800D01*
X0223281Y0009800D01*
X0227862Y0014380D02*
X0354500Y0014380D01*
X0378559Y0018379D02*
X0231860Y0018379D01*
X0217567Y0018748D02*
X0307331Y0108512D01*
X0468584Y0108512D01*
X0482003Y0095093D01*
X0482003Y0077869D01*
X0481937Y0077803D01*
X0482134Y0078000D01*
X0491937Y0077803D02*
X0491976Y0077843D01*
X0491976Y0099457D01*
X0477803Y0113630D01*
X0304181Y0113630D01*
X0215205Y0024654D01*
X0142449Y0024654D01*
X0136543Y0030559D01*
X0136543Y0042213D01*
X0146543Y0052213D01*
X0141421Y0054366D02*
X0112610Y0054366D01*
X0112198Y0055360D02*
X0113044Y0053318D01*
X0113044Y0051107D01*
X0112198Y0049065D01*
X0110635Y0047503D01*
X0108593Y0046657D01*
X0106383Y0046657D01*
X0104341Y0047503D01*
X0102778Y0049065D01*
X0102022Y0050890D01*
X0086996Y0065917D01*
X0068925Y0065917D01*
X0053899Y0050890D01*
X0053143Y0049065D01*
X0051580Y0047503D01*
X0049538Y0046657D01*
X0047328Y0046657D01*
X0045286Y0047503D01*
X0043723Y0049065D01*
X0042967Y0050890D01*
X0016751Y0077106D01*
X0016020Y0078871D01*
X0016020Y0085291D01*
X0014981Y0088147D01*
X0016872Y0092201D01*
X0019183Y0093042D01*
X0040450Y0114310D01*
X0026120Y0114310D01*
X0026272Y0114047D01*
X0027110Y0110918D01*
X0027110Y0107680D01*
X0026272Y0104552D01*
X0024653Y0101747D01*
X0022363Y0099457D01*
X0019558Y0097838D01*
X0016430Y0097000D01*
X0013192Y0097000D01*
X0010064Y0097838D01*
X0009800Y0097990D01*
X0009800Y0026120D01*
X0010064Y0026272D01*
X0013192Y0027110D01*
X0014245Y0027110D01*
X0013033Y0028322D01*
X0013033Y0032796D01*
X0013948Y0033711D01*
X0013948Y0043482D01*
X0014679Y0045247D01*
X0022967Y0053535D01*
X0023723Y0055360D01*
X0025286Y0056923D01*
X0027328Y0057768D01*
X0029538Y0057768D01*
X0031580Y0056923D01*
X0033143Y0055360D01*
X0033989Y0053318D01*
X0033989Y0051107D01*
X0033143Y0049065D01*
X0031580Y0047503D01*
X0029755Y0046747D01*
X0023548Y0040539D01*
X0023548Y0033081D01*
X0023833Y0032796D01*
X0023833Y0031947D01*
X0038138Y0017643D01*
X0083617Y0017643D01*
X0076100Y0025159D01*
X0075251Y0025159D01*
X0072088Y0028322D01*
X0072088Y0032796D01*
X0072688Y0033396D01*
X0072688Y0043167D01*
X0073419Y0044932D01*
X0082022Y0053535D01*
X0082778Y0055360D01*
X0084341Y0056923D01*
X0086383Y0057768D01*
X0088593Y0057768D01*
X0090635Y0056923D01*
X0092198Y0055360D01*
X0093044Y0053318D01*
X0093044Y0051107D01*
X0092198Y0049065D01*
X0090635Y0047503D01*
X0088810Y0046747D01*
X0082288Y0040224D01*
X0082288Y0033396D01*
X0082888Y0032796D01*
X0082888Y0031947D01*
X0091287Y0023548D01*
X0136766Y0023548D01*
X0135155Y0025159D01*
X0134307Y0025159D01*
X0131143Y0028322D01*
X0131143Y0032796D01*
X0131743Y0033396D01*
X0131743Y0043167D01*
X0132474Y0044932D01*
X0141077Y0053535D01*
X0141833Y0055360D01*
X0143396Y0056923D01*
X0145438Y0057768D01*
X0147648Y0057768D01*
X0149690Y0056923D01*
X0151253Y0055360D01*
X0152099Y0053318D01*
X0152099Y0051107D01*
X0151253Y0049065D01*
X0149690Y0047503D01*
X0147866Y0046747D01*
X0141343Y0040224D01*
X0141343Y0033396D01*
X0141943Y0032796D01*
X0141943Y0031947D01*
X0144437Y0029454D01*
X0213216Y0029454D01*
X0288589Y0104826D01*
X0283053Y0104826D01*
X0282024Y0105252D01*
X0281237Y0106040D01*
X0281222Y0106074D01*
X0149949Y0106074D01*
X0141943Y0098068D01*
X0141943Y0097220D01*
X0138780Y0094057D01*
X0134307Y0094057D01*
X0131143Y0097220D01*
X0131143Y0101693D01*
X0134307Y0104857D01*
X0135155Y0104857D01*
X0136372Y0106074D01*
X0090894Y0106074D01*
X0082888Y0098068D01*
X0082888Y0097220D01*
X0079725Y0094057D01*
X0075251Y0094057D01*
X0072088Y0097220D01*
X0072088Y0099171D01*
X0065185Y0106074D01*
X0061532Y0106074D01*
X0062717Y0105521D01*
X0064247Y0101318D01*
X0063208Y0099089D01*
X0063208Y0091823D01*
X0062477Y0090059D01*
X0061127Y0088709D01*
X0048833Y0076415D01*
X0048833Y0075566D01*
X0045670Y0072403D01*
X0041196Y0072403D01*
X0038033Y0075566D01*
X0038033Y0080040D01*
X0041196Y0083203D01*
X0042045Y0083203D01*
X0053608Y0094766D01*
X0053608Y0098972D01*
X0052569Y0101828D01*
X0054459Y0105882D01*
X0054987Y0106074D01*
X0045791Y0106074D01*
X0026053Y0086337D01*
X0025620Y0085408D01*
X0025620Y0081814D01*
X0048433Y0059001D01*
X0062868Y0073436D01*
X0064218Y0074786D01*
X0065982Y0075517D01*
X0097138Y0075517D01*
X0097088Y0075566D01*
X0097088Y0080040D01*
X0100251Y0083203D01*
X0100420Y0083203D01*
X0112088Y0099771D01*
X0112088Y0101693D01*
X0115251Y0104857D01*
X0119725Y0104857D01*
X0122888Y0101693D01*
X0122888Y0097220D01*
X0119998Y0094330D01*
X0107888Y0077135D01*
X0107888Y0075566D01*
X0107838Y0075517D01*
X0151314Y0075517D01*
X0151596Y0075596D01*
X0152261Y0075517D01*
X0152931Y0075517D01*
X0153201Y0075405D01*
X0153492Y0075370D01*
X0154076Y0075042D01*
X0154695Y0074786D01*
X0154902Y0074579D01*
X0155157Y0074436D01*
X0155572Y0073909D01*
X0156046Y0073436D01*
X0156158Y0073165D01*
X0168583Y0057381D01*
X0169690Y0056923D01*
X0171253Y0055360D01*
X0172099Y0053318D01*
X0172099Y0051107D01*
X0171253Y0049065D01*
X0169690Y0047503D01*
X0167648Y0046657D01*
X0165438Y0046657D01*
X0163396Y0047503D01*
X0161833Y0049065D01*
X0160987Y0051107D01*
X0160987Y0051510D01*
X0149646Y0065917D01*
X0100572Y0065917D01*
X0108810Y0057679D01*
X0110635Y0056923D01*
X0112198Y0055360D01*
X0107488Y0052213D02*
X0088984Y0070717D01*
X0151976Y0070717D01*
X0166543Y0052213D01*
X0171665Y0054366D02*
X0238129Y0054366D01*
X0234130Y0050367D02*
X0171793Y0050367D01*
X0161294Y0050367D02*
X0151793Y0050367D01*
X0137910Y0050367D02*
X0112737Y0050367D01*
X0107488Y0052213D02*
X0106937Y0052213D01*
X0098547Y0054366D02*
X0092610Y0054366D01*
X0087488Y0052213D02*
X0077488Y0042213D01*
X0077488Y0030559D01*
X0089299Y0018748D01*
X0217567Y0018748D01*
X0235859Y0022378D02*
X0382558Y0022378D01*
X0396134Y0022378D02*
X0402267Y0022378D01*
X0397227Y0023470D02*
X0397227Y0023470D01*
X0407528Y0020559D02*
X0417528Y0010559D01*
X0429181Y0010559D01*
X0457409Y0010559D01*
X0511937Y0065087D01*
X0511937Y0077803D01*
X0501937Y0077803D02*
X0501819Y0077685D01*
X0501819Y0064811D01*
X0495362Y0058354D01*
X0415404Y0058354D01*
X0407924Y0065835D01*
X0407528Y0065835D01*
X0401972Y0066361D02*
X0397957Y0066361D01*
X0388357Y0066361D02*
X0374252Y0066361D01*
X0367134Y0066031D02*
X0381937Y0080835D01*
X0376537Y0082223D02*
X0363065Y0068750D01*
X0362334Y0066986D01*
X0362334Y0063433D01*
X0361339Y0059720D01*
X0363576Y0055846D01*
X0365391Y0055359D01*
X0361152Y0055359D01*
X0360552Y0055959D01*
X0356078Y0055959D01*
X0352915Y0052796D01*
X0352915Y0048322D01*
X0356078Y0045159D01*
X0360552Y0045159D01*
X0361152Y0045759D01*
X0364949Y0045759D01*
X0376537Y0034171D01*
X0376537Y0033322D01*
X0379700Y0030159D01*
X0384174Y0030159D01*
X0387337Y0033322D01*
X0387337Y0037796D01*
X0384174Y0040959D01*
X0383325Y0040959D01*
X0369656Y0054628D01*
X0368572Y0055077D01*
X0371771Y0056924D01*
X0372929Y0061246D01*
X0371934Y0062969D01*
X0371934Y0064043D01*
X0383325Y0075435D01*
X0384174Y0075435D01*
X0387337Y0078598D01*
X0387337Y0083071D01*
X0384174Y0086235D01*
X0379700Y0086235D01*
X0376537Y0083071D01*
X0376537Y0082223D01*
X0376537Y0082355D02*
X0295836Y0082355D01*
X0291838Y0078357D02*
X0372671Y0078357D01*
X0387096Y0078357D02*
X0393261Y0078357D01*
X0397260Y0082355D02*
X0387337Y0082355D01*
X0401258Y0086354D02*
X0315347Y0086354D01*
X0303251Y0086354D02*
X0299835Y0086354D01*
X0309299Y0089614D02*
X0314809Y0095124D01*
X0347134Y0095124D01*
X0349105Y0097094D01*
X0445913Y0097094D01*
X0418787Y0097094D01*
X0407528Y0085835D01*
X0404188Y0090352D02*
X0349669Y0090352D01*
X0418833Y0090352D02*
X0466734Y0090352D01*
X0462735Y0094351D02*
X0451666Y0094351D01*
X0451666Y0098349D02*
X0458737Y0098349D01*
X0483911Y0114310D02*
X0495772Y0102449D01*
X0496734Y0102847D01*
X0503754Y0102847D01*
X0504783Y0102421D01*
X0505309Y0101894D01*
X0535845Y0101894D01*
X0537609Y0101164D01*
X0538959Y0099813D01*
X0552169Y0086603D01*
X0553091Y0086603D01*
X0555222Y0085720D01*
X0556854Y0084089D01*
X0557469Y0082603D01*
X0593216Y0082603D01*
X0611458Y0100845D01*
X0611458Y0101693D01*
X0614622Y0104857D01*
X0615470Y0104857D01*
X0622632Y0112018D01*
X0623982Y0113368D01*
X0625746Y0114099D01*
X0667026Y0114099D01*
X0668790Y0113368D01*
X0675913Y0106245D01*
X0680687Y0111018D01*
X0682451Y0111749D01*
X0733913Y0111749D01*
X0736374Y0112793D01*
X0740522Y0111118D01*
X0742269Y0107000D01*
X0740594Y0102852D01*
X0736476Y0101104D01*
X0733890Y0102149D01*
X0720858Y0102149D01*
X0721313Y0101693D01*
X0721313Y0097220D01*
X0720713Y0096620D01*
X0720713Y0091848D01*
X0719983Y0090084D01*
X0718632Y0088734D01*
X0706313Y0076415D01*
X0706313Y0075566D01*
X0703150Y0072403D01*
X0698677Y0072403D01*
X0695513Y0075566D01*
X0695513Y0080040D01*
X0698677Y0083203D01*
X0699525Y0083203D01*
X0711113Y0094791D01*
X0711113Y0096620D01*
X0710513Y0097220D01*
X0710513Y0101693D01*
X0710969Y0102149D01*
X0685394Y0102149D01*
X0681313Y0098068D01*
X0681313Y0097220D01*
X0678150Y0094057D01*
X0677302Y0094057D01*
X0667800Y0084555D01*
X0667800Y0073154D01*
X0692695Y0073154D01*
X0694459Y0072424D01*
X0695809Y0071073D01*
X0705913Y0060969D01*
X0717368Y0072424D01*
X0719132Y0073154D01*
X0751750Y0073154D01*
X0753514Y0072424D01*
X0754865Y0071073D01*
X0766291Y0059647D01*
X0768116Y0058891D01*
X0769679Y0057328D01*
X0770524Y0055286D01*
X0770524Y0053076D01*
X0769679Y0051034D01*
X0768116Y0049471D01*
X0766074Y0048625D01*
X0763863Y0048625D01*
X0761821Y0049471D01*
X0760258Y0051034D01*
X0759503Y0052859D01*
X0748807Y0063554D01*
X0722075Y0063554D01*
X0711379Y0052859D01*
X0710623Y0051034D01*
X0709061Y0049471D01*
X0707019Y0048625D01*
X0704808Y0048625D01*
X0702766Y0049471D01*
X0701203Y0051034D01*
X0700447Y0052859D01*
X0689752Y0063554D01*
X0664988Y0063554D01*
X0652324Y0050890D01*
X0651568Y0049065D01*
X0650005Y0047503D01*
X0647963Y0046657D01*
X0645753Y0046657D01*
X0643711Y0047503D01*
X0642148Y0049065D01*
X0641302Y0051107D01*
X0641302Y0053318D01*
X0642148Y0055360D01*
X0643711Y0056923D01*
X0645536Y0057679D01*
X0658200Y0070343D01*
X0658200Y0087357D01*
X0647258Y0076415D01*
X0647258Y0075566D01*
X0644095Y0072403D01*
X0639622Y0072403D01*
X0636458Y0075566D01*
X0636458Y0080040D01*
X0639622Y0083203D01*
X0640470Y0083203D01*
X0652058Y0094791D01*
X0652058Y0096620D01*
X0651458Y0097220D01*
X0651458Y0101693D01*
X0654264Y0104499D01*
X0628689Y0104499D01*
X0622258Y0098068D01*
X0622258Y0097220D01*
X0619095Y0094057D01*
X0618246Y0094057D01*
X0599274Y0075084D01*
X0597924Y0073734D01*
X0596159Y0073003D01*
X0557469Y0073003D01*
X0556854Y0071518D01*
X0555222Y0069886D01*
X0553091Y0069003D01*
X0550783Y0069003D01*
X0548652Y0069886D01*
X0547020Y0071518D01*
X0546937Y0071718D01*
X0546854Y0071518D01*
X0546737Y0071401D01*
X0546737Y0056602D01*
X0567980Y0035359D01*
X0612058Y0035359D01*
X0612058Y0043167D01*
X0612789Y0044932D01*
X0621392Y0053535D01*
X0622148Y0055360D01*
X0623711Y0056923D01*
X0625753Y0057768D01*
X0627963Y0057768D01*
X0630005Y0056923D01*
X0631568Y0055360D01*
X0632414Y0053318D01*
X0632414Y0051107D01*
X0631568Y0049065D01*
X0630005Y0047503D01*
X0628180Y0046747D01*
X0621658Y0040224D01*
X0621658Y0033396D01*
X0622258Y0032796D01*
X0622258Y0028322D01*
X0619095Y0025159D01*
X0614622Y0025159D01*
X0614022Y0025759D01*
X0569706Y0025759D01*
X0573886Y0021580D01*
X0660146Y0021580D01*
X0670513Y0031947D01*
X0670513Y0032796D01*
X0671113Y0033396D01*
X0671113Y0045136D01*
X0671844Y0046900D01*
X0680447Y0055503D01*
X0681203Y0057328D01*
X0682766Y0058891D01*
X0684808Y0059737D01*
X0687019Y0059737D01*
X0689061Y0058891D01*
X0690623Y0057328D01*
X0691469Y0055286D01*
X0691469Y0053076D01*
X0690623Y0051034D01*
X0689061Y0049471D01*
X0687236Y0048715D01*
X0680713Y0042193D01*
X0680713Y0033396D01*
X0681313Y0032796D01*
X0681313Y0028322D01*
X0678150Y0025159D01*
X0677302Y0025159D01*
X0667817Y0015674D01*
X0713295Y0015674D01*
X0729569Y0031947D01*
X0729569Y0032796D01*
X0730169Y0033396D01*
X0730169Y0045136D01*
X0730899Y0046900D01*
X0739503Y0055503D01*
X0740258Y0057328D01*
X0741821Y0058891D01*
X0743863Y0059737D01*
X0746074Y0059737D01*
X0748116Y0058891D01*
X0749679Y0057328D01*
X0750524Y0055286D01*
X0750524Y0053076D01*
X0749679Y0051034D01*
X0748116Y0049471D01*
X0746291Y0048715D01*
X0739768Y0042193D01*
X0739768Y0033396D01*
X0740368Y0032796D01*
X0740368Y0028322D01*
X0737205Y0025159D01*
X0736357Y0025159D01*
X0720998Y0009800D01*
X0767282Y0009800D01*
X0767130Y0010064D01*
X0766291Y0013192D01*
X0766291Y0016430D01*
X0767130Y0019558D01*
X0768749Y0022363D01*
X0771039Y0024653D01*
X0773843Y0026272D01*
X0776971Y0027110D01*
X0780210Y0027110D01*
X0783338Y0026272D01*
X0783602Y0026120D01*
X0783602Y0097990D01*
X0783338Y0097838D01*
X0780210Y0097000D01*
X0776971Y0097000D01*
X0773843Y0097838D01*
X0771039Y0099457D01*
X0768749Y0101747D01*
X0767130Y0104552D01*
X0766291Y0107680D01*
X0766291Y0110918D01*
X0767130Y0114047D01*
X0767282Y0114310D01*
X0483911Y0114310D01*
X0487876Y0110345D02*
X0620958Y0110345D01*
X0626701Y0109299D02*
X0666071Y0109299D01*
X0675913Y0099457D01*
X0663000Y0086543D01*
X0663000Y0068354D01*
X0646858Y0052213D01*
X0641736Y0054366D02*
X0631980Y0054366D01*
X0626858Y0052213D02*
X0616858Y0042213D01*
X0616858Y0030559D01*
X0565992Y0030559D01*
X0541937Y0054614D01*
X0541937Y0077803D01*
X0531937Y0077803D02*
X0531937Y0056740D01*
X0571898Y0016780D01*
X0662134Y0016780D01*
X0675913Y0030559D01*
X0675913Y0044181D01*
X0685913Y0054181D01*
X0691469Y0054366D02*
X0698941Y0054366D01*
X0705913Y0054181D02*
X0691740Y0068354D01*
X0663000Y0068354D01*
X0658200Y0070360D02*
X0555696Y0070360D01*
X0548178Y0070360D02*
X0546737Y0070360D01*
X0546737Y0066361D02*
X0654219Y0066361D01*
X0650220Y0062363D02*
X0546737Y0062363D01*
X0546737Y0058364D02*
X0646222Y0058364D01*
X0659798Y0058364D02*
X0682239Y0058364D01*
X0689588Y0058364D02*
X0694942Y0058364D01*
X0690944Y0062363D02*
X0663797Y0062363D01*
X0700522Y0066361D02*
X0711305Y0066361D01*
X0720087Y0068354D02*
X0705913Y0054181D01*
X0712886Y0054366D02*
X0738365Y0054366D01*
X0744969Y0054181D02*
X0734969Y0044181D01*
X0734969Y0030559D01*
X0715283Y0010874D01*
X0569929Y0010874D01*
X0521937Y0058866D01*
X0521937Y0077803D01*
X0534890Y0097094D02*
X0551937Y0080047D01*
X0551937Y0077803D01*
X0595205Y0077803D01*
X0616858Y0099457D01*
X0626701Y0109299D01*
X0616960Y0106346D02*
X0491875Y0106346D01*
X0504856Y0102348D02*
X0612113Y0102348D01*
X0626538Y0102348D02*
X0652113Y0102348D01*
X0656858Y0099457D02*
X0656858Y0092803D01*
X0641858Y0077803D01*
X0636458Y0078357D02*
X0602546Y0078357D01*
X0606545Y0082355D02*
X0638774Y0082355D01*
X0653199Y0082355D02*
X0658200Y0082355D01*
X0667800Y0082355D02*
X0697829Y0082355D01*
X0712254Y0082355D02*
X0756884Y0082355D01*
X0757732Y0083203D02*
X0754569Y0080040D01*
X0754569Y0075566D01*
X0757732Y0072403D01*
X0762205Y0072403D01*
X0765368Y0075566D01*
X0765368Y0077033D01*
X0775114Y0086778D01*
X0777681Y0087868D01*
X0779357Y0092016D01*
X0777609Y0096133D01*
X0773461Y0097809D01*
X0769343Y0096061D01*
X0768342Y0093582D01*
X0757963Y0083203D01*
X0757732Y0083203D01*
X0761113Y0086354D02*
X0716252Y0086354D01*
X0702676Y0086354D02*
X0669599Y0086354D01*
X0658200Y0086354D02*
X0657197Y0086354D01*
X0643621Y0086354D02*
X0610543Y0086354D01*
X0596967Y0086354D02*
X0553693Y0086354D01*
X0548420Y0090352D02*
X0600966Y0090352D01*
X0614542Y0090352D02*
X0647619Y0090352D01*
X0673597Y0090352D02*
X0706674Y0090352D01*
X0720094Y0090352D02*
X0765112Y0090352D01*
X0773512Y0091965D02*
X0759969Y0078421D01*
X0759969Y0077803D01*
X0754569Y0078357D02*
X0708255Y0078357D01*
X0700913Y0077803D02*
X0715913Y0092803D01*
X0715913Y0099457D01*
X0710513Y0098349D02*
X0681594Y0098349D01*
X0675913Y0099457D02*
X0683406Y0106949D01*
X0736425Y0106949D01*
X0742005Y0106346D02*
X0766649Y0106346D01*
X0766291Y0110345D02*
X0740850Y0110345D01*
X0739406Y0102348D02*
X0768402Y0102348D01*
X0772958Y0098349D02*
X0721313Y0098349D01*
X0720713Y0094351D02*
X0768652Y0094351D01*
X0778366Y0094351D02*
X0783602Y0094351D01*
X0783602Y0090352D02*
X0778685Y0090352D01*
X0774690Y0086354D02*
X0783602Y0086354D01*
X0783602Y0082355D02*
X0770691Y0082355D01*
X0766693Y0078357D02*
X0783602Y0078357D01*
X0783602Y0074358D02*
X0764160Y0074358D01*
X0755777Y0074358D02*
X0705105Y0074358D01*
X0696722Y0074358D02*
X0667800Y0074358D01*
X0658200Y0074358D02*
X0646050Y0074358D01*
X0637666Y0074358D02*
X0598548Y0074358D01*
X0649200Y0078357D02*
X0658200Y0078357D01*
X0667800Y0078357D02*
X0695513Y0078357D01*
X0696523Y0070360D02*
X0715304Y0070360D01*
X0720087Y0068354D02*
X0750795Y0068354D01*
X0764969Y0054181D01*
X0770524Y0054366D02*
X0783602Y0054366D01*
X0783602Y0050367D02*
X0769012Y0050367D01*
X0760925Y0050367D02*
X0749012Y0050367D01*
X0734366Y0050367D02*
X0709957Y0050367D01*
X0701870Y0050367D02*
X0689957Y0050367D01*
X0675311Y0050367D02*
X0652107Y0050367D01*
X0641609Y0050367D02*
X0632107Y0050367D01*
X0618225Y0050367D02*
X0552972Y0050367D01*
X0548974Y0054366D02*
X0621736Y0054366D01*
X0655799Y0054366D02*
X0679310Y0054366D01*
X0716885Y0058364D02*
X0741294Y0058364D01*
X0748643Y0058364D02*
X0753997Y0058364D01*
X0768643Y0058364D02*
X0783602Y0058364D01*
X0783602Y0062363D02*
X0763575Y0062363D01*
X0749999Y0062363D02*
X0720883Y0062363D01*
X0707307Y0062363D02*
X0704520Y0062363D01*
X0750524Y0054366D02*
X0757996Y0054366D01*
X0743944Y0046369D02*
X0783602Y0046369D01*
X0783602Y0042370D02*
X0739946Y0042370D01*
X0730169Y0042370D02*
X0680891Y0042370D01*
X0671113Y0042370D02*
X0623804Y0042370D01*
X0612058Y0042370D02*
X0560969Y0042370D01*
X0556971Y0046369D02*
X0614226Y0046369D01*
X0627802Y0046369D02*
X0671624Y0046369D01*
X0684889Y0046369D02*
X0730679Y0046369D01*
X0730169Y0038372D02*
X0680713Y0038372D01*
X0671113Y0038372D02*
X0621658Y0038372D01*
X0612058Y0038372D02*
X0564968Y0038372D01*
X0539642Y0034373D02*
X0488012Y0034373D01*
X0474435Y0034373D02*
X0408130Y0034373D01*
X0404131Y0030375D02*
X0470437Y0030375D01*
X0484013Y0030375D02*
X0543640Y0030375D01*
X0547639Y0026376D02*
X0480015Y0026376D01*
X0466438Y0026376D02*
X0400133Y0026376D01*
X0393157Y0026189D02*
X0407528Y0040559D01*
X0412635Y0038372D02*
X0478434Y0038372D01*
X0492010Y0038372D02*
X0535643Y0038372D01*
X0531645Y0042370D02*
X0496009Y0042370D01*
X0482432Y0042370D02*
X0412791Y0042370D01*
X0402264Y0042370D02*
X0397957Y0042370D01*
X0388357Y0042370D02*
X0381914Y0042370D01*
X0368338Y0042370D02*
X0255851Y0042370D01*
X0259850Y0046369D02*
X0354869Y0046369D01*
X0352915Y0050367D02*
X0263848Y0050367D01*
X0267847Y0054366D02*
X0354485Y0054366D01*
X0369919Y0054366D02*
X0388357Y0054366D01*
X0397957Y0054366D02*
X0411471Y0054366D01*
X0397957Y0050367D02*
X0490429Y0050367D01*
X0504006Y0050367D02*
X0523648Y0050367D01*
X0527646Y0046369D02*
X0500007Y0046369D01*
X0486431Y0046369D02*
X0397957Y0046369D01*
X0388357Y0046369D02*
X0377916Y0046369D01*
X0373917Y0050367D02*
X0388357Y0050367D01*
X0381937Y0035559D02*
X0366937Y0050559D01*
X0358315Y0050559D01*
X0362122Y0058364D02*
X0271845Y0058364D01*
X0275844Y0062363D02*
X0362047Y0062363D01*
X0372284Y0062363D02*
X0388357Y0062363D01*
X0397957Y0062363D02*
X0403142Y0062363D01*
X0397957Y0058364D02*
X0408606Y0058364D01*
X0388357Y0058364D02*
X0372157Y0058364D01*
X0367134Y0060483D02*
X0367134Y0066031D01*
X0362334Y0066361D02*
X0279842Y0066361D01*
X0283841Y0070360D02*
X0364674Y0070360D01*
X0378250Y0070360D02*
X0388357Y0070360D01*
X0398841Y0070360D02*
X0404195Y0070360D01*
X0410860Y0070360D02*
X0468178Y0070360D01*
X0475696Y0070360D02*
X0478178Y0070360D01*
X0485696Y0070360D02*
X0488178Y0070360D01*
X0495696Y0070360D02*
X0497019Y0070360D01*
X0496581Y0066361D02*
X0414185Y0066361D01*
X0402839Y0074358D02*
X0466137Y0074358D01*
X0516737Y0071401D02*
X0516854Y0071518D01*
X0516937Y0071718D01*
X0517020Y0071518D01*
X0517137Y0071401D01*
X0517137Y0057911D01*
X0517868Y0056147D01*
X0519218Y0054797D01*
X0564215Y0009800D01*
X0463439Y0009800D01*
X0514656Y0061017D01*
X0516006Y0062368D01*
X0516737Y0064132D01*
X0516737Y0071401D01*
X0516737Y0070360D02*
X0517137Y0070360D01*
X0517137Y0066361D02*
X0516737Y0066361D01*
X0517137Y0062363D02*
X0516001Y0062363D01*
X0517137Y0058364D02*
X0512003Y0058364D01*
X0519218Y0054797D02*
X0519218Y0054797D01*
X0519649Y0054366D02*
X0508004Y0054366D01*
X0398552Y0038372D02*
X0397957Y0038372D01*
X0388357Y0038372D02*
X0386761Y0038372D01*
X0372336Y0038372D02*
X0251853Y0038372D01*
X0247854Y0034373D02*
X0376335Y0034373D01*
X0387337Y0034373D02*
X0388357Y0034373D01*
X0388357Y0030375D02*
X0384389Y0030375D01*
X0379485Y0030375D02*
X0243856Y0030375D01*
X0239857Y0026376D02*
X0386556Y0026376D01*
X0412788Y0022378D02*
X0462440Y0022378D01*
X0476016Y0022378D02*
X0551637Y0022378D01*
X0573088Y0022378D02*
X0660944Y0022378D01*
X0674520Y0022378D02*
X0719999Y0022378D01*
X0733575Y0022378D02*
X0768763Y0022378D01*
X0774231Y0026376D02*
X0738422Y0026376D01*
X0723997Y0026376D02*
X0679367Y0026376D01*
X0664942Y0026376D02*
X0620312Y0026376D01*
X0622258Y0030375D02*
X0668941Y0030375D01*
X0681313Y0030375D02*
X0727996Y0030375D01*
X0740368Y0030375D02*
X0783602Y0030375D01*
X0783602Y0034373D02*
X0739768Y0034373D01*
X0730169Y0034373D02*
X0680713Y0034373D01*
X0671113Y0034373D02*
X0621658Y0034373D01*
X0670522Y0018379D02*
X0716000Y0018379D01*
X0729577Y0018379D02*
X0766814Y0018379D01*
X0766291Y0014380D02*
X0725578Y0014380D01*
X0721580Y0010382D02*
X0767044Y0010382D01*
X0782950Y0026376D02*
X0783602Y0026376D01*
X0783602Y0038372D02*
X0739768Y0038372D01*
X0563633Y0010382D02*
X0464021Y0010382D01*
X0468019Y0014380D02*
X0559634Y0014380D01*
X0555636Y0018379D02*
X0472018Y0018379D01*
X0458441Y0018379D02*
X0416496Y0018379D01*
X0402417Y0018379D02*
X0392136Y0018379D01*
X0389203Y0015447D02*
X0389203Y0015447D01*
X0388137Y0014380D02*
X0406918Y0014380D01*
X0410916Y0010382D02*
X0384139Y0010382D01*
X0218136Y0034373D02*
X0141343Y0034373D01*
X0131743Y0034373D02*
X0082288Y0034373D01*
X0072688Y0034373D02*
X0023548Y0034373D01*
X0013948Y0034373D02*
X0009800Y0034373D01*
X0009800Y0030375D02*
X0013033Y0030375D01*
X0025406Y0030375D02*
X0072088Y0030375D01*
X0084461Y0030375D02*
X0131143Y0030375D01*
X0143516Y0030375D02*
X0214138Y0030375D01*
X0222135Y0038372D02*
X0141343Y0038372D01*
X0131743Y0038372D02*
X0082288Y0038372D01*
X0072688Y0038372D02*
X0023548Y0038372D01*
X0013948Y0038372D02*
X0009800Y0038372D01*
X0009800Y0042370D02*
X0013948Y0042370D01*
X0025379Y0042370D02*
X0072688Y0042370D01*
X0084434Y0042370D02*
X0131743Y0042370D01*
X0143489Y0042370D02*
X0226133Y0042370D01*
X0230132Y0046369D02*
X0147488Y0046369D01*
X0133911Y0046369D02*
X0088432Y0046369D01*
X0074856Y0046369D02*
X0029377Y0046369D01*
X0015801Y0046369D02*
X0009800Y0046369D01*
X0009800Y0050367D02*
X0019799Y0050367D01*
X0033682Y0050367D02*
X0043184Y0050367D01*
X0053682Y0050367D02*
X0078854Y0050367D01*
X0092737Y0050367D02*
X0102239Y0050367D01*
X0082366Y0054366D02*
X0057374Y0054366D01*
X0048433Y0052213D02*
X0066937Y0070717D01*
X0088984Y0070717D01*
X0063790Y0074358D02*
X0047625Y0074358D01*
X0039241Y0074358D02*
X0033076Y0074358D01*
X0019499Y0074358D02*
X0009800Y0074358D01*
X0009800Y0070360D02*
X0023498Y0070360D01*
X0037074Y0070360D02*
X0059792Y0070360D01*
X0055793Y0066361D02*
X0041073Y0066361D01*
X0027496Y0066361D02*
X0009800Y0066361D01*
X0009800Y0062363D02*
X0031495Y0062363D01*
X0045071Y0062363D02*
X0051795Y0062363D01*
X0065371Y0062363D02*
X0090550Y0062363D01*
X0104126Y0062363D02*
X0152444Y0062363D01*
X0164662Y0062363D02*
X0246126Y0062363D01*
X0250124Y0066361D02*
X0161514Y0066361D01*
X0158366Y0070360D02*
X0254123Y0070360D01*
X0258121Y0074358D02*
X0165735Y0074358D01*
X0166943Y0075566D02*
X0163780Y0072403D01*
X0159307Y0072403D01*
X0156143Y0075566D01*
X0156143Y0080040D01*
X0157063Y0080960D01*
X0157570Y0085548D01*
X0157570Y0086238D01*
X0157674Y0086489D01*
X0157704Y0086760D01*
X0158037Y0087365D01*
X0158301Y0088002D01*
X0158493Y0088195D01*
X0158624Y0088433D01*
X0159163Y0088865D01*
X0171143Y0100845D01*
X0171143Y0101693D01*
X0174307Y0104857D01*
X0178780Y0104857D01*
X0181943Y0101693D01*
X0181943Y0097220D01*
X0178780Y0094057D01*
X0177932Y0094057D01*
X0166956Y0083081D01*
X0166652Y0080331D01*
X0166943Y0080040D01*
X0166943Y0075566D01*
X0161543Y0077803D02*
X0162370Y0085283D01*
X0176543Y0099457D01*
X0181943Y0098349D02*
X0282112Y0098349D01*
X0278114Y0094351D02*
X0179074Y0094351D01*
X0164649Y0094351D02*
X0139074Y0094351D01*
X0134013Y0094351D02*
X0120019Y0094351D01*
X0108271Y0094351D02*
X0080019Y0094351D01*
X0074957Y0094351D02*
X0063208Y0094351D01*
X0053192Y0094351D02*
X0034067Y0094351D01*
X0020491Y0094351D02*
X0009800Y0094351D01*
X0020444Y0098349D02*
X0024489Y0098349D01*
X0038066Y0098349D02*
X0053608Y0098349D01*
X0063208Y0098349D02*
X0072088Y0098349D01*
X0077488Y0099457D02*
X0088906Y0110874D01*
X0147961Y0110874D01*
X0285677Y0110874D01*
X0286111Y0102348D02*
X0181289Y0102348D01*
X0171798Y0102348D02*
X0146223Y0102348D01*
X0147961Y0110874D02*
X0136543Y0099457D01*
X0131143Y0098349D02*
X0122888Y0098349D01*
X0117488Y0099102D02*
X0117488Y0099457D01*
X0117488Y0099102D02*
X0102488Y0077803D01*
X0097088Y0078357D02*
X0050775Y0078357D01*
X0043433Y0077803D02*
X0058408Y0092778D01*
X0058408Y0101573D01*
X0063872Y0102348D02*
X0068911Y0102348D01*
X0067173Y0110874D02*
X0077488Y0100559D01*
X0077488Y0099457D01*
X0083169Y0098349D02*
X0111087Y0098349D01*
X0112743Y0102348D02*
X0087167Y0102348D01*
X0052811Y0102348D02*
X0042064Y0102348D01*
X0028488Y0102348D02*
X0024999Y0102348D01*
X0026753Y0106346D02*
X0032487Y0106346D01*
X0036485Y0110345D02*
X0027110Y0110345D01*
X0043802Y0110874D02*
X0020820Y0087892D01*
X0020820Y0079825D01*
X0048433Y0052213D01*
X0039492Y0054366D02*
X0033555Y0054366D01*
X0023311Y0054366D02*
X0009800Y0054366D01*
X0009800Y0058364D02*
X0035493Y0058364D01*
X0061373Y0058364D02*
X0094548Y0058364D01*
X0108125Y0058364D02*
X0155592Y0058364D01*
X0167809Y0058364D02*
X0242127Y0058364D01*
X0158739Y0054366D02*
X0151665Y0054366D01*
X0155218Y0074358D02*
X0157352Y0074358D01*
X0156143Y0078357D02*
X0108749Y0078357D01*
X0111565Y0082355D02*
X0157217Y0082355D01*
X0166876Y0082355D02*
X0266118Y0082355D01*
X0262120Y0078357D02*
X0166943Y0078357D01*
X0170229Y0086354D02*
X0270117Y0086354D01*
X0274115Y0090352D02*
X0174227Y0090352D01*
X0160651Y0090352D02*
X0117197Y0090352D01*
X0105455Y0090352D02*
X0062599Y0090352D01*
X0049194Y0090352D02*
X0030069Y0090352D01*
X0016009Y0090352D02*
X0009800Y0090352D01*
X0009800Y0086354D02*
X0015634Y0086354D01*
X0026070Y0086354D02*
X0045195Y0086354D01*
X0058772Y0086354D02*
X0102639Y0086354D01*
X0114381Y0086354D02*
X0157618Y0086354D01*
X0099403Y0082355D02*
X0054773Y0082355D01*
X0040348Y0082355D02*
X0025620Y0082355D01*
X0016020Y0082355D02*
X0009800Y0082355D01*
X0009800Y0078357D02*
X0016233Y0078357D01*
X0029077Y0078357D02*
X0038033Y0078357D01*
X0142224Y0098349D02*
X0168648Y0098349D01*
X0131798Y0102348D02*
X0122234Y0102348D01*
X0067173Y0110874D02*
X0043802Y0110874D01*
X0287839Y0074358D02*
X0368672Y0074358D01*
X0382249Y0074358D02*
X0389263Y0074358D01*
X0500244Y0097094D02*
X0534890Y0097094D01*
X0540423Y0098349D02*
X0608963Y0098349D01*
X0622539Y0098349D02*
X0651458Y0098349D01*
X0651618Y0094351D02*
X0619389Y0094351D01*
X0604964Y0094351D02*
X0544422Y0094351D01*
X0671814Y0110345D02*
X0680013Y0110345D01*
X0676015Y0106346D02*
X0675812Y0106346D01*
X0678444Y0094351D02*
X0710673Y0094351D01*
X0755578Y0070360D02*
X0783602Y0070360D01*
X0783602Y0066361D02*
X0759577Y0066361D01*
X0133090Y0026376D02*
X0088459Y0026376D01*
X0074034Y0026376D02*
X0029404Y0026376D01*
X0010452Y0026376D02*
X0009800Y0026376D01*
X0033403Y0022378D02*
X0078881Y0022378D01*
X0082880Y0018379D02*
X0037401Y0018379D01*
D17*
X0274654Y0054181D03*
X0249063Y0073866D03*
X0445913Y0097094D03*
X0500244Y0097094D03*
D18*
X0309299Y0089614D03*
X0286858Y0110874D03*
X0383709Y0054181D03*
X0401425Y0054181D03*
X0471110Y0038827D03*
X0498276Y0038827D03*
X0537252Y0031740D03*
X0559693Y0050638D03*
M02*
