G75*
%MOIN*%
%OFA0B0*%
%FSLAX25Y25*%
%IPPOS*%
%LPD*%
%AMOC8*
5,1,8,0,0,1.08239X$1,22.5*
%
%ADD10C,0.01600*%
%ADD11C,0.00000*%
%ADD12C,0.13398*%
%ADD13OC8,0.06000*%
%ADD14C,0.01200*%
%ADD15C,0.06800*%
%ADD16C,0.06312*%
%ADD17R,0.06706X0.06706*%
%ADD18R,0.07296X0.07296*%
D10*
X0003000Y0003000D02*
X0790402Y0003000D01*
X0790402Y0121110D01*
X0003000Y0121110D01*
X0003000Y0003000D01*
D11*
X0008512Y0014811D02*
X0008514Y0014969D01*
X0008520Y0015127D01*
X0008530Y0015285D01*
X0008544Y0015443D01*
X0008562Y0015600D01*
X0008583Y0015757D01*
X0008609Y0015913D01*
X0008639Y0016069D01*
X0008672Y0016224D01*
X0008710Y0016377D01*
X0008751Y0016530D01*
X0008796Y0016682D01*
X0008845Y0016833D01*
X0008898Y0016982D01*
X0008954Y0017130D01*
X0009014Y0017276D01*
X0009078Y0017421D01*
X0009146Y0017564D01*
X0009217Y0017706D01*
X0009291Y0017846D01*
X0009369Y0017983D01*
X0009451Y0018119D01*
X0009535Y0018253D01*
X0009624Y0018384D01*
X0009715Y0018513D01*
X0009810Y0018640D01*
X0009907Y0018765D01*
X0010008Y0018887D01*
X0010112Y0019006D01*
X0010219Y0019123D01*
X0010329Y0019237D01*
X0010442Y0019348D01*
X0010557Y0019457D01*
X0010675Y0019562D01*
X0010796Y0019664D01*
X0010919Y0019764D01*
X0011045Y0019860D01*
X0011173Y0019953D01*
X0011303Y0020043D01*
X0011436Y0020129D01*
X0011571Y0020213D01*
X0011707Y0020292D01*
X0011846Y0020369D01*
X0011987Y0020441D01*
X0012129Y0020511D01*
X0012273Y0020576D01*
X0012419Y0020638D01*
X0012566Y0020696D01*
X0012715Y0020751D01*
X0012865Y0020802D01*
X0013016Y0020849D01*
X0013168Y0020892D01*
X0013321Y0020931D01*
X0013476Y0020967D01*
X0013631Y0020998D01*
X0013787Y0021026D01*
X0013943Y0021050D01*
X0014100Y0021070D01*
X0014258Y0021086D01*
X0014415Y0021098D01*
X0014574Y0021106D01*
X0014732Y0021110D01*
X0014890Y0021110D01*
X0015048Y0021106D01*
X0015207Y0021098D01*
X0015364Y0021086D01*
X0015522Y0021070D01*
X0015679Y0021050D01*
X0015835Y0021026D01*
X0015991Y0020998D01*
X0016146Y0020967D01*
X0016301Y0020931D01*
X0016454Y0020892D01*
X0016606Y0020849D01*
X0016757Y0020802D01*
X0016907Y0020751D01*
X0017056Y0020696D01*
X0017203Y0020638D01*
X0017349Y0020576D01*
X0017493Y0020511D01*
X0017635Y0020441D01*
X0017776Y0020369D01*
X0017915Y0020292D01*
X0018051Y0020213D01*
X0018186Y0020129D01*
X0018319Y0020043D01*
X0018449Y0019953D01*
X0018577Y0019860D01*
X0018703Y0019764D01*
X0018826Y0019664D01*
X0018947Y0019562D01*
X0019065Y0019457D01*
X0019180Y0019348D01*
X0019293Y0019237D01*
X0019403Y0019123D01*
X0019510Y0019006D01*
X0019614Y0018887D01*
X0019715Y0018765D01*
X0019812Y0018640D01*
X0019907Y0018513D01*
X0019998Y0018384D01*
X0020087Y0018253D01*
X0020171Y0018119D01*
X0020253Y0017983D01*
X0020331Y0017846D01*
X0020405Y0017706D01*
X0020476Y0017564D01*
X0020544Y0017421D01*
X0020608Y0017276D01*
X0020668Y0017130D01*
X0020724Y0016982D01*
X0020777Y0016833D01*
X0020826Y0016682D01*
X0020871Y0016530D01*
X0020912Y0016377D01*
X0020950Y0016224D01*
X0020983Y0016069D01*
X0021013Y0015913D01*
X0021039Y0015757D01*
X0021060Y0015600D01*
X0021078Y0015443D01*
X0021092Y0015285D01*
X0021102Y0015127D01*
X0021108Y0014969D01*
X0021110Y0014811D01*
X0021108Y0014653D01*
X0021102Y0014495D01*
X0021092Y0014337D01*
X0021078Y0014179D01*
X0021060Y0014022D01*
X0021039Y0013865D01*
X0021013Y0013709D01*
X0020983Y0013553D01*
X0020950Y0013398D01*
X0020912Y0013245D01*
X0020871Y0013092D01*
X0020826Y0012940D01*
X0020777Y0012789D01*
X0020724Y0012640D01*
X0020668Y0012492D01*
X0020608Y0012346D01*
X0020544Y0012201D01*
X0020476Y0012058D01*
X0020405Y0011916D01*
X0020331Y0011776D01*
X0020253Y0011639D01*
X0020171Y0011503D01*
X0020087Y0011369D01*
X0019998Y0011238D01*
X0019907Y0011109D01*
X0019812Y0010982D01*
X0019715Y0010857D01*
X0019614Y0010735D01*
X0019510Y0010616D01*
X0019403Y0010499D01*
X0019293Y0010385D01*
X0019180Y0010274D01*
X0019065Y0010165D01*
X0018947Y0010060D01*
X0018826Y0009958D01*
X0018703Y0009858D01*
X0018577Y0009762D01*
X0018449Y0009669D01*
X0018319Y0009579D01*
X0018186Y0009493D01*
X0018051Y0009409D01*
X0017915Y0009330D01*
X0017776Y0009253D01*
X0017635Y0009181D01*
X0017493Y0009111D01*
X0017349Y0009046D01*
X0017203Y0008984D01*
X0017056Y0008926D01*
X0016907Y0008871D01*
X0016757Y0008820D01*
X0016606Y0008773D01*
X0016454Y0008730D01*
X0016301Y0008691D01*
X0016146Y0008655D01*
X0015991Y0008624D01*
X0015835Y0008596D01*
X0015679Y0008572D01*
X0015522Y0008552D01*
X0015364Y0008536D01*
X0015207Y0008524D01*
X0015048Y0008516D01*
X0014890Y0008512D01*
X0014732Y0008512D01*
X0014574Y0008516D01*
X0014415Y0008524D01*
X0014258Y0008536D01*
X0014100Y0008552D01*
X0013943Y0008572D01*
X0013787Y0008596D01*
X0013631Y0008624D01*
X0013476Y0008655D01*
X0013321Y0008691D01*
X0013168Y0008730D01*
X0013016Y0008773D01*
X0012865Y0008820D01*
X0012715Y0008871D01*
X0012566Y0008926D01*
X0012419Y0008984D01*
X0012273Y0009046D01*
X0012129Y0009111D01*
X0011987Y0009181D01*
X0011846Y0009253D01*
X0011707Y0009330D01*
X0011571Y0009409D01*
X0011436Y0009493D01*
X0011303Y0009579D01*
X0011173Y0009669D01*
X0011045Y0009762D01*
X0010919Y0009858D01*
X0010796Y0009958D01*
X0010675Y0010060D01*
X0010557Y0010165D01*
X0010442Y0010274D01*
X0010329Y0010385D01*
X0010219Y0010499D01*
X0010112Y0010616D01*
X0010008Y0010735D01*
X0009907Y0010857D01*
X0009810Y0010982D01*
X0009715Y0011109D01*
X0009624Y0011238D01*
X0009535Y0011369D01*
X0009451Y0011503D01*
X0009369Y0011639D01*
X0009291Y0011776D01*
X0009217Y0011916D01*
X0009146Y0012058D01*
X0009078Y0012201D01*
X0009014Y0012346D01*
X0008954Y0012492D01*
X0008898Y0012640D01*
X0008845Y0012789D01*
X0008796Y0012940D01*
X0008751Y0013092D01*
X0008710Y0013245D01*
X0008672Y0013398D01*
X0008639Y0013553D01*
X0008609Y0013709D01*
X0008583Y0013865D01*
X0008562Y0014022D01*
X0008544Y0014179D01*
X0008530Y0014337D01*
X0008520Y0014495D01*
X0008514Y0014653D01*
X0008512Y0014811D01*
X0008512Y0109299D02*
X0008514Y0109457D01*
X0008520Y0109615D01*
X0008530Y0109773D01*
X0008544Y0109931D01*
X0008562Y0110088D01*
X0008583Y0110245D01*
X0008609Y0110401D01*
X0008639Y0110557D01*
X0008672Y0110712D01*
X0008710Y0110865D01*
X0008751Y0111018D01*
X0008796Y0111170D01*
X0008845Y0111321D01*
X0008898Y0111470D01*
X0008954Y0111618D01*
X0009014Y0111764D01*
X0009078Y0111909D01*
X0009146Y0112052D01*
X0009217Y0112194D01*
X0009291Y0112334D01*
X0009369Y0112471D01*
X0009451Y0112607D01*
X0009535Y0112741D01*
X0009624Y0112872D01*
X0009715Y0113001D01*
X0009810Y0113128D01*
X0009907Y0113253D01*
X0010008Y0113375D01*
X0010112Y0113494D01*
X0010219Y0113611D01*
X0010329Y0113725D01*
X0010442Y0113836D01*
X0010557Y0113945D01*
X0010675Y0114050D01*
X0010796Y0114152D01*
X0010919Y0114252D01*
X0011045Y0114348D01*
X0011173Y0114441D01*
X0011303Y0114531D01*
X0011436Y0114617D01*
X0011571Y0114701D01*
X0011707Y0114780D01*
X0011846Y0114857D01*
X0011987Y0114929D01*
X0012129Y0114999D01*
X0012273Y0115064D01*
X0012419Y0115126D01*
X0012566Y0115184D01*
X0012715Y0115239D01*
X0012865Y0115290D01*
X0013016Y0115337D01*
X0013168Y0115380D01*
X0013321Y0115419D01*
X0013476Y0115455D01*
X0013631Y0115486D01*
X0013787Y0115514D01*
X0013943Y0115538D01*
X0014100Y0115558D01*
X0014258Y0115574D01*
X0014415Y0115586D01*
X0014574Y0115594D01*
X0014732Y0115598D01*
X0014890Y0115598D01*
X0015048Y0115594D01*
X0015207Y0115586D01*
X0015364Y0115574D01*
X0015522Y0115558D01*
X0015679Y0115538D01*
X0015835Y0115514D01*
X0015991Y0115486D01*
X0016146Y0115455D01*
X0016301Y0115419D01*
X0016454Y0115380D01*
X0016606Y0115337D01*
X0016757Y0115290D01*
X0016907Y0115239D01*
X0017056Y0115184D01*
X0017203Y0115126D01*
X0017349Y0115064D01*
X0017493Y0114999D01*
X0017635Y0114929D01*
X0017776Y0114857D01*
X0017915Y0114780D01*
X0018051Y0114701D01*
X0018186Y0114617D01*
X0018319Y0114531D01*
X0018449Y0114441D01*
X0018577Y0114348D01*
X0018703Y0114252D01*
X0018826Y0114152D01*
X0018947Y0114050D01*
X0019065Y0113945D01*
X0019180Y0113836D01*
X0019293Y0113725D01*
X0019403Y0113611D01*
X0019510Y0113494D01*
X0019614Y0113375D01*
X0019715Y0113253D01*
X0019812Y0113128D01*
X0019907Y0113001D01*
X0019998Y0112872D01*
X0020087Y0112741D01*
X0020171Y0112607D01*
X0020253Y0112471D01*
X0020331Y0112334D01*
X0020405Y0112194D01*
X0020476Y0112052D01*
X0020544Y0111909D01*
X0020608Y0111764D01*
X0020668Y0111618D01*
X0020724Y0111470D01*
X0020777Y0111321D01*
X0020826Y0111170D01*
X0020871Y0111018D01*
X0020912Y0110865D01*
X0020950Y0110712D01*
X0020983Y0110557D01*
X0021013Y0110401D01*
X0021039Y0110245D01*
X0021060Y0110088D01*
X0021078Y0109931D01*
X0021092Y0109773D01*
X0021102Y0109615D01*
X0021108Y0109457D01*
X0021110Y0109299D01*
X0021108Y0109141D01*
X0021102Y0108983D01*
X0021092Y0108825D01*
X0021078Y0108667D01*
X0021060Y0108510D01*
X0021039Y0108353D01*
X0021013Y0108197D01*
X0020983Y0108041D01*
X0020950Y0107886D01*
X0020912Y0107733D01*
X0020871Y0107580D01*
X0020826Y0107428D01*
X0020777Y0107277D01*
X0020724Y0107128D01*
X0020668Y0106980D01*
X0020608Y0106834D01*
X0020544Y0106689D01*
X0020476Y0106546D01*
X0020405Y0106404D01*
X0020331Y0106264D01*
X0020253Y0106127D01*
X0020171Y0105991D01*
X0020087Y0105857D01*
X0019998Y0105726D01*
X0019907Y0105597D01*
X0019812Y0105470D01*
X0019715Y0105345D01*
X0019614Y0105223D01*
X0019510Y0105104D01*
X0019403Y0104987D01*
X0019293Y0104873D01*
X0019180Y0104762D01*
X0019065Y0104653D01*
X0018947Y0104548D01*
X0018826Y0104446D01*
X0018703Y0104346D01*
X0018577Y0104250D01*
X0018449Y0104157D01*
X0018319Y0104067D01*
X0018186Y0103981D01*
X0018051Y0103897D01*
X0017915Y0103818D01*
X0017776Y0103741D01*
X0017635Y0103669D01*
X0017493Y0103599D01*
X0017349Y0103534D01*
X0017203Y0103472D01*
X0017056Y0103414D01*
X0016907Y0103359D01*
X0016757Y0103308D01*
X0016606Y0103261D01*
X0016454Y0103218D01*
X0016301Y0103179D01*
X0016146Y0103143D01*
X0015991Y0103112D01*
X0015835Y0103084D01*
X0015679Y0103060D01*
X0015522Y0103040D01*
X0015364Y0103024D01*
X0015207Y0103012D01*
X0015048Y0103004D01*
X0014890Y0103000D01*
X0014732Y0103000D01*
X0014574Y0103004D01*
X0014415Y0103012D01*
X0014258Y0103024D01*
X0014100Y0103040D01*
X0013943Y0103060D01*
X0013787Y0103084D01*
X0013631Y0103112D01*
X0013476Y0103143D01*
X0013321Y0103179D01*
X0013168Y0103218D01*
X0013016Y0103261D01*
X0012865Y0103308D01*
X0012715Y0103359D01*
X0012566Y0103414D01*
X0012419Y0103472D01*
X0012273Y0103534D01*
X0012129Y0103599D01*
X0011987Y0103669D01*
X0011846Y0103741D01*
X0011707Y0103818D01*
X0011571Y0103897D01*
X0011436Y0103981D01*
X0011303Y0104067D01*
X0011173Y0104157D01*
X0011045Y0104250D01*
X0010919Y0104346D01*
X0010796Y0104446D01*
X0010675Y0104548D01*
X0010557Y0104653D01*
X0010442Y0104762D01*
X0010329Y0104873D01*
X0010219Y0104987D01*
X0010112Y0105104D01*
X0010008Y0105223D01*
X0009907Y0105345D01*
X0009810Y0105470D01*
X0009715Y0105597D01*
X0009624Y0105726D01*
X0009535Y0105857D01*
X0009451Y0105991D01*
X0009369Y0106127D01*
X0009291Y0106264D01*
X0009217Y0106404D01*
X0009146Y0106546D01*
X0009078Y0106689D01*
X0009014Y0106834D01*
X0008954Y0106980D01*
X0008898Y0107128D01*
X0008845Y0107277D01*
X0008796Y0107428D01*
X0008751Y0107580D01*
X0008710Y0107733D01*
X0008672Y0107886D01*
X0008639Y0108041D01*
X0008609Y0108197D01*
X0008583Y0108353D01*
X0008562Y0108510D01*
X0008544Y0108667D01*
X0008530Y0108825D01*
X0008520Y0108983D01*
X0008514Y0109141D01*
X0008512Y0109299D01*
X0772292Y0109299D02*
X0772294Y0109457D01*
X0772300Y0109615D01*
X0772310Y0109773D01*
X0772324Y0109931D01*
X0772342Y0110088D01*
X0772363Y0110245D01*
X0772389Y0110401D01*
X0772419Y0110557D01*
X0772452Y0110712D01*
X0772490Y0110865D01*
X0772531Y0111018D01*
X0772576Y0111170D01*
X0772625Y0111321D01*
X0772678Y0111470D01*
X0772734Y0111618D01*
X0772794Y0111764D01*
X0772858Y0111909D01*
X0772926Y0112052D01*
X0772997Y0112194D01*
X0773071Y0112334D01*
X0773149Y0112471D01*
X0773231Y0112607D01*
X0773315Y0112741D01*
X0773404Y0112872D01*
X0773495Y0113001D01*
X0773590Y0113128D01*
X0773687Y0113253D01*
X0773788Y0113375D01*
X0773892Y0113494D01*
X0773999Y0113611D01*
X0774109Y0113725D01*
X0774222Y0113836D01*
X0774337Y0113945D01*
X0774455Y0114050D01*
X0774576Y0114152D01*
X0774699Y0114252D01*
X0774825Y0114348D01*
X0774953Y0114441D01*
X0775083Y0114531D01*
X0775216Y0114617D01*
X0775351Y0114701D01*
X0775487Y0114780D01*
X0775626Y0114857D01*
X0775767Y0114929D01*
X0775909Y0114999D01*
X0776053Y0115064D01*
X0776199Y0115126D01*
X0776346Y0115184D01*
X0776495Y0115239D01*
X0776645Y0115290D01*
X0776796Y0115337D01*
X0776948Y0115380D01*
X0777101Y0115419D01*
X0777256Y0115455D01*
X0777411Y0115486D01*
X0777567Y0115514D01*
X0777723Y0115538D01*
X0777880Y0115558D01*
X0778038Y0115574D01*
X0778195Y0115586D01*
X0778354Y0115594D01*
X0778512Y0115598D01*
X0778670Y0115598D01*
X0778828Y0115594D01*
X0778987Y0115586D01*
X0779144Y0115574D01*
X0779302Y0115558D01*
X0779459Y0115538D01*
X0779615Y0115514D01*
X0779771Y0115486D01*
X0779926Y0115455D01*
X0780081Y0115419D01*
X0780234Y0115380D01*
X0780386Y0115337D01*
X0780537Y0115290D01*
X0780687Y0115239D01*
X0780836Y0115184D01*
X0780983Y0115126D01*
X0781129Y0115064D01*
X0781273Y0114999D01*
X0781415Y0114929D01*
X0781556Y0114857D01*
X0781695Y0114780D01*
X0781831Y0114701D01*
X0781966Y0114617D01*
X0782099Y0114531D01*
X0782229Y0114441D01*
X0782357Y0114348D01*
X0782483Y0114252D01*
X0782606Y0114152D01*
X0782727Y0114050D01*
X0782845Y0113945D01*
X0782960Y0113836D01*
X0783073Y0113725D01*
X0783183Y0113611D01*
X0783290Y0113494D01*
X0783394Y0113375D01*
X0783495Y0113253D01*
X0783592Y0113128D01*
X0783687Y0113001D01*
X0783778Y0112872D01*
X0783867Y0112741D01*
X0783951Y0112607D01*
X0784033Y0112471D01*
X0784111Y0112334D01*
X0784185Y0112194D01*
X0784256Y0112052D01*
X0784324Y0111909D01*
X0784388Y0111764D01*
X0784448Y0111618D01*
X0784504Y0111470D01*
X0784557Y0111321D01*
X0784606Y0111170D01*
X0784651Y0111018D01*
X0784692Y0110865D01*
X0784730Y0110712D01*
X0784763Y0110557D01*
X0784793Y0110401D01*
X0784819Y0110245D01*
X0784840Y0110088D01*
X0784858Y0109931D01*
X0784872Y0109773D01*
X0784882Y0109615D01*
X0784888Y0109457D01*
X0784890Y0109299D01*
X0784888Y0109141D01*
X0784882Y0108983D01*
X0784872Y0108825D01*
X0784858Y0108667D01*
X0784840Y0108510D01*
X0784819Y0108353D01*
X0784793Y0108197D01*
X0784763Y0108041D01*
X0784730Y0107886D01*
X0784692Y0107733D01*
X0784651Y0107580D01*
X0784606Y0107428D01*
X0784557Y0107277D01*
X0784504Y0107128D01*
X0784448Y0106980D01*
X0784388Y0106834D01*
X0784324Y0106689D01*
X0784256Y0106546D01*
X0784185Y0106404D01*
X0784111Y0106264D01*
X0784033Y0106127D01*
X0783951Y0105991D01*
X0783867Y0105857D01*
X0783778Y0105726D01*
X0783687Y0105597D01*
X0783592Y0105470D01*
X0783495Y0105345D01*
X0783394Y0105223D01*
X0783290Y0105104D01*
X0783183Y0104987D01*
X0783073Y0104873D01*
X0782960Y0104762D01*
X0782845Y0104653D01*
X0782727Y0104548D01*
X0782606Y0104446D01*
X0782483Y0104346D01*
X0782357Y0104250D01*
X0782229Y0104157D01*
X0782099Y0104067D01*
X0781966Y0103981D01*
X0781831Y0103897D01*
X0781695Y0103818D01*
X0781556Y0103741D01*
X0781415Y0103669D01*
X0781273Y0103599D01*
X0781129Y0103534D01*
X0780983Y0103472D01*
X0780836Y0103414D01*
X0780687Y0103359D01*
X0780537Y0103308D01*
X0780386Y0103261D01*
X0780234Y0103218D01*
X0780081Y0103179D01*
X0779926Y0103143D01*
X0779771Y0103112D01*
X0779615Y0103084D01*
X0779459Y0103060D01*
X0779302Y0103040D01*
X0779144Y0103024D01*
X0778987Y0103012D01*
X0778828Y0103004D01*
X0778670Y0103000D01*
X0778512Y0103000D01*
X0778354Y0103004D01*
X0778195Y0103012D01*
X0778038Y0103024D01*
X0777880Y0103040D01*
X0777723Y0103060D01*
X0777567Y0103084D01*
X0777411Y0103112D01*
X0777256Y0103143D01*
X0777101Y0103179D01*
X0776948Y0103218D01*
X0776796Y0103261D01*
X0776645Y0103308D01*
X0776495Y0103359D01*
X0776346Y0103414D01*
X0776199Y0103472D01*
X0776053Y0103534D01*
X0775909Y0103599D01*
X0775767Y0103669D01*
X0775626Y0103741D01*
X0775487Y0103818D01*
X0775351Y0103897D01*
X0775216Y0103981D01*
X0775083Y0104067D01*
X0774953Y0104157D01*
X0774825Y0104250D01*
X0774699Y0104346D01*
X0774576Y0104446D01*
X0774455Y0104548D01*
X0774337Y0104653D01*
X0774222Y0104762D01*
X0774109Y0104873D01*
X0773999Y0104987D01*
X0773892Y0105104D01*
X0773788Y0105223D01*
X0773687Y0105345D01*
X0773590Y0105470D01*
X0773495Y0105597D01*
X0773404Y0105726D01*
X0773315Y0105857D01*
X0773231Y0105991D01*
X0773149Y0106127D01*
X0773071Y0106264D01*
X0772997Y0106404D01*
X0772926Y0106546D01*
X0772858Y0106689D01*
X0772794Y0106834D01*
X0772734Y0106980D01*
X0772678Y0107128D01*
X0772625Y0107277D01*
X0772576Y0107428D01*
X0772531Y0107580D01*
X0772490Y0107733D01*
X0772452Y0107886D01*
X0772419Y0108041D01*
X0772389Y0108197D01*
X0772363Y0108353D01*
X0772342Y0108510D01*
X0772324Y0108667D01*
X0772310Y0108825D01*
X0772300Y0108983D01*
X0772294Y0109141D01*
X0772292Y0109299D01*
X0772292Y0014811D02*
X0772294Y0014969D01*
X0772300Y0015127D01*
X0772310Y0015285D01*
X0772324Y0015443D01*
X0772342Y0015600D01*
X0772363Y0015757D01*
X0772389Y0015913D01*
X0772419Y0016069D01*
X0772452Y0016224D01*
X0772490Y0016377D01*
X0772531Y0016530D01*
X0772576Y0016682D01*
X0772625Y0016833D01*
X0772678Y0016982D01*
X0772734Y0017130D01*
X0772794Y0017276D01*
X0772858Y0017421D01*
X0772926Y0017564D01*
X0772997Y0017706D01*
X0773071Y0017846D01*
X0773149Y0017983D01*
X0773231Y0018119D01*
X0773315Y0018253D01*
X0773404Y0018384D01*
X0773495Y0018513D01*
X0773590Y0018640D01*
X0773687Y0018765D01*
X0773788Y0018887D01*
X0773892Y0019006D01*
X0773999Y0019123D01*
X0774109Y0019237D01*
X0774222Y0019348D01*
X0774337Y0019457D01*
X0774455Y0019562D01*
X0774576Y0019664D01*
X0774699Y0019764D01*
X0774825Y0019860D01*
X0774953Y0019953D01*
X0775083Y0020043D01*
X0775216Y0020129D01*
X0775351Y0020213D01*
X0775487Y0020292D01*
X0775626Y0020369D01*
X0775767Y0020441D01*
X0775909Y0020511D01*
X0776053Y0020576D01*
X0776199Y0020638D01*
X0776346Y0020696D01*
X0776495Y0020751D01*
X0776645Y0020802D01*
X0776796Y0020849D01*
X0776948Y0020892D01*
X0777101Y0020931D01*
X0777256Y0020967D01*
X0777411Y0020998D01*
X0777567Y0021026D01*
X0777723Y0021050D01*
X0777880Y0021070D01*
X0778038Y0021086D01*
X0778195Y0021098D01*
X0778354Y0021106D01*
X0778512Y0021110D01*
X0778670Y0021110D01*
X0778828Y0021106D01*
X0778987Y0021098D01*
X0779144Y0021086D01*
X0779302Y0021070D01*
X0779459Y0021050D01*
X0779615Y0021026D01*
X0779771Y0020998D01*
X0779926Y0020967D01*
X0780081Y0020931D01*
X0780234Y0020892D01*
X0780386Y0020849D01*
X0780537Y0020802D01*
X0780687Y0020751D01*
X0780836Y0020696D01*
X0780983Y0020638D01*
X0781129Y0020576D01*
X0781273Y0020511D01*
X0781415Y0020441D01*
X0781556Y0020369D01*
X0781695Y0020292D01*
X0781831Y0020213D01*
X0781966Y0020129D01*
X0782099Y0020043D01*
X0782229Y0019953D01*
X0782357Y0019860D01*
X0782483Y0019764D01*
X0782606Y0019664D01*
X0782727Y0019562D01*
X0782845Y0019457D01*
X0782960Y0019348D01*
X0783073Y0019237D01*
X0783183Y0019123D01*
X0783290Y0019006D01*
X0783394Y0018887D01*
X0783495Y0018765D01*
X0783592Y0018640D01*
X0783687Y0018513D01*
X0783778Y0018384D01*
X0783867Y0018253D01*
X0783951Y0018119D01*
X0784033Y0017983D01*
X0784111Y0017846D01*
X0784185Y0017706D01*
X0784256Y0017564D01*
X0784324Y0017421D01*
X0784388Y0017276D01*
X0784448Y0017130D01*
X0784504Y0016982D01*
X0784557Y0016833D01*
X0784606Y0016682D01*
X0784651Y0016530D01*
X0784692Y0016377D01*
X0784730Y0016224D01*
X0784763Y0016069D01*
X0784793Y0015913D01*
X0784819Y0015757D01*
X0784840Y0015600D01*
X0784858Y0015443D01*
X0784872Y0015285D01*
X0784882Y0015127D01*
X0784888Y0014969D01*
X0784890Y0014811D01*
X0784888Y0014653D01*
X0784882Y0014495D01*
X0784872Y0014337D01*
X0784858Y0014179D01*
X0784840Y0014022D01*
X0784819Y0013865D01*
X0784793Y0013709D01*
X0784763Y0013553D01*
X0784730Y0013398D01*
X0784692Y0013245D01*
X0784651Y0013092D01*
X0784606Y0012940D01*
X0784557Y0012789D01*
X0784504Y0012640D01*
X0784448Y0012492D01*
X0784388Y0012346D01*
X0784324Y0012201D01*
X0784256Y0012058D01*
X0784185Y0011916D01*
X0784111Y0011776D01*
X0784033Y0011639D01*
X0783951Y0011503D01*
X0783867Y0011369D01*
X0783778Y0011238D01*
X0783687Y0011109D01*
X0783592Y0010982D01*
X0783495Y0010857D01*
X0783394Y0010735D01*
X0783290Y0010616D01*
X0783183Y0010499D01*
X0783073Y0010385D01*
X0782960Y0010274D01*
X0782845Y0010165D01*
X0782727Y0010060D01*
X0782606Y0009958D01*
X0782483Y0009858D01*
X0782357Y0009762D01*
X0782229Y0009669D01*
X0782099Y0009579D01*
X0781966Y0009493D01*
X0781831Y0009409D01*
X0781695Y0009330D01*
X0781556Y0009253D01*
X0781415Y0009181D01*
X0781273Y0009111D01*
X0781129Y0009046D01*
X0780983Y0008984D01*
X0780836Y0008926D01*
X0780687Y0008871D01*
X0780537Y0008820D01*
X0780386Y0008773D01*
X0780234Y0008730D01*
X0780081Y0008691D01*
X0779926Y0008655D01*
X0779771Y0008624D01*
X0779615Y0008596D01*
X0779459Y0008572D01*
X0779302Y0008552D01*
X0779144Y0008536D01*
X0778987Y0008524D01*
X0778828Y0008516D01*
X0778670Y0008512D01*
X0778512Y0008512D01*
X0778354Y0008516D01*
X0778195Y0008524D01*
X0778038Y0008536D01*
X0777880Y0008552D01*
X0777723Y0008572D01*
X0777567Y0008596D01*
X0777411Y0008624D01*
X0777256Y0008655D01*
X0777101Y0008691D01*
X0776948Y0008730D01*
X0776796Y0008773D01*
X0776645Y0008820D01*
X0776495Y0008871D01*
X0776346Y0008926D01*
X0776199Y0008984D01*
X0776053Y0009046D01*
X0775909Y0009111D01*
X0775767Y0009181D01*
X0775626Y0009253D01*
X0775487Y0009330D01*
X0775351Y0009409D01*
X0775216Y0009493D01*
X0775083Y0009579D01*
X0774953Y0009669D01*
X0774825Y0009762D01*
X0774699Y0009858D01*
X0774576Y0009958D01*
X0774455Y0010060D01*
X0774337Y0010165D01*
X0774222Y0010274D01*
X0774109Y0010385D01*
X0773999Y0010499D01*
X0773892Y0010616D01*
X0773788Y0010735D01*
X0773687Y0010857D01*
X0773590Y0010982D01*
X0773495Y0011109D01*
X0773404Y0011238D01*
X0773315Y0011369D01*
X0773231Y0011503D01*
X0773149Y0011639D01*
X0773071Y0011776D01*
X0772997Y0011916D01*
X0772926Y0012058D01*
X0772858Y0012201D01*
X0772794Y0012346D01*
X0772734Y0012492D01*
X0772678Y0012640D01*
X0772625Y0012789D01*
X0772576Y0012940D01*
X0772531Y0013092D01*
X0772490Y0013245D01*
X0772452Y0013398D01*
X0772419Y0013553D01*
X0772389Y0013709D01*
X0772363Y0013865D01*
X0772342Y0014022D01*
X0772324Y0014179D01*
X0772310Y0014337D01*
X0772300Y0014495D01*
X0772294Y0014653D01*
X0772292Y0014811D01*
D12*
X0778591Y0014811D03*
X0778591Y0109299D03*
X0014811Y0109299D03*
X0014811Y0014811D03*
D13*
X0018433Y0030559D03*
X0058433Y0030559D03*
X0077488Y0030559D03*
X0117488Y0030559D03*
X0136543Y0030559D03*
X0176543Y0030559D03*
X0358315Y0010559D03*
X0429181Y0010559D03*
X0381937Y0025559D03*
X0381937Y0035559D03*
X0358315Y0050559D03*
X0429181Y0050559D03*
X0381937Y0070835D03*
X0381937Y0080835D03*
X0176543Y0099457D03*
X0136543Y0099457D03*
X0117488Y0099457D03*
X0077488Y0099457D03*
X0092488Y0077803D03*
X0102488Y0077803D03*
X0151543Y0077803D03*
X0161543Y0077803D03*
X0043433Y0077803D03*
X0033433Y0077803D03*
X0616858Y0099457D03*
X0656858Y0099457D03*
X0675913Y0099457D03*
X0715913Y0099457D03*
X0700913Y0077803D03*
X0690913Y0077803D03*
X0641858Y0077803D03*
X0631858Y0077803D03*
X0749969Y0077803D03*
X0759969Y0077803D03*
X0774969Y0030559D03*
X0734969Y0030559D03*
X0715913Y0030559D03*
X0675913Y0030559D03*
X0656858Y0030559D03*
X0616858Y0030559D03*
D14*
X0417379Y0058093D02*
X0417979Y0058693D01*
X0417464Y0056773D01*
X0415743Y0055779D01*
X0413823Y0056294D01*
X0412829Y0058015D01*
X0413344Y0059935D01*
X0415065Y0060929D01*
X0416985Y0060414D01*
X0417979Y0058693D01*
X0417013Y0058566D01*
X0416691Y0057366D01*
X0415616Y0056745D01*
X0414416Y0057067D01*
X0413795Y0058142D01*
X0414117Y0059342D01*
X0415192Y0059963D01*
X0416392Y0059641D01*
X0417013Y0058566D01*
X0416047Y0058439D01*
X0415918Y0057959D01*
X0415489Y0057711D01*
X0415009Y0057840D01*
X0414761Y0058269D01*
X0414890Y0058749D01*
X0415319Y0058997D01*
X0415799Y0058868D01*
X0416047Y0058439D01*
X0366873Y0058508D02*
X0367473Y0057908D01*
X0365553Y0058423D01*
X0364559Y0060144D01*
X0365074Y0062064D01*
X0366795Y0063058D01*
X0368715Y0062543D01*
X0369709Y0060822D01*
X0369194Y0058902D01*
X0367473Y0057908D01*
X0367346Y0058874D01*
X0366146Y0059196D01*
X0365525Y0060271D01*
X0365847Y0061471D01*
X0366922Y0062092D01*
X0368122Y0061770D01*
X0368743Y0060695D01*
X0368421Y0059495D01*
X0367346Y0058874D01*
X0367219Y0059840D01*
X0366739Y0059969D01*
X0366491Y0060398D01*
X0366620Y0060878D01*
X0367049Y0061126D01*
X0367529Y0060997D01*
X0367777Y0060568D01*
X0367648Y0060088D01*
X0367219Y0059840D01*
X0452020Y0078093D02*
X0452620Y0078693D01*
X0452105Y0076773D01*
X0450384Y0075779D01*
X0448464Y0076294D01*
X0447470Y0078015D01*
X0447985Y0079935D01*
X0449706Y0080929D01*
X0451626Y0080414D01*
X0452620Y0078693D01*
X0451654Y0078566D01*
X0451332Y0077366D01*
X0450257Y0076745D01*
X0449057Y0077067D01*
X0448436Y0078142D01*
X0448758Y0079342D01*
X0449833Y0079963D01*
X0451033Y0079641D01*
X0451654Y0078566D01*
X0450688Y0078439D01*
X0450559Y0077959D01*
X0450130Y0077711D01*
X0449650Y0077840D01*
X0449402Y0078269D01*
X0449531Y0078749D01*
X0449960Y0078997D01*
X0450440Y0078868D01*
X0450688Y0078439D01*
X0346873Y0093149D02*
X0347473Y0092549D01*
X0345553Y0093064D01*
X0344559Y0094785D01*
X0345074Y0096705D01*
X0346795Y0097699D01*
X0348715Y0097184D01*
X0349709Y0095463D01*
X0349194Y0093543D01*
X0347473Y0092549D01*
X0347346Y0093515D01*
X0346146Y0093837D01*
X0345525Y0094912D01*
X0345847Y0096112D01*
X0346922Y0096733D01*
X0348122Y0096411D01*
X0348743Y0095336D01*
X0348421Y0094136D01*
X0347346Y0093515D01*
X0347219Y0094481D01*
X0346739Y0094610D01*
X0346491Y0095039D01*
X0346620Y0095519D01*
X0347049Y0095767D01*
X0347529Y0095638D01*
X0347777Y0095209D01*
X0347648Y0094729D01*
X0347219Y0094481D01*
X0060403Y0102060D02*
X0061003Y0101460D01*
X0060162Y0099658D01*
X0058295Y0098978D01*
X0056493Y0099819D01*
X0055813Y0101686D01*
X0056654Y0103488D01*
X0058521Y0104168D01*
X0060323Y0103327D01*
X0061003Y0101460D01*
X0060029Y0101503D01*
X0059504Y0100376D01*
X0058338Y0099952D01*
X0057211Y0100477D01*
X0056787Y0101643D01*
X0057312Y0102770D01*
X0058478Y0103194D01*
X0059605Y0102669D01*
X0060029Y0101503D01*
X0059056Y0101546D01*
X0058846Y0101095D01*
X0058381Y0100925D01*
X0057930Y0101135D01*
X0057760Y0101600D01*
X0057970Y0102051D01*
X0058435Y0102221D01*
X0058886Y0102011D01*
X0059056Y0101546D01*
X0022815Y0088379D02*
X0023415Y0087779D01*
X0022574Y0085977D01*
X0020707Y0085297D01*
X0018905Y0086138D01*
X0018225Y0088005D01*
X0019066Y0089807D01*
X0020933Y0090487D01*
X0022735Y0089646D01*
X0023415Y0087779D01*
X0022441Y0087822D01*
X0021916Y0086695D01*
X0020750Y0086271D01*
X0019623Y0086796D01*
X0019199Y0087962D01*
X0019724Y0089089D01*
X0020890Y0089513D01*
X0022017Y0088988D01*
X0022441Y0087822D01*
X0021468Y0087865D01*
X0021258Y0087414D01*
X0020793Y0087244D01*
X0020342Y0087454D01*
X0020172Y0087919D01*
X0020382Y0088370D01*
X0020847Y0088540D01*
X0021298Y0088330D01*
X0021468Y0087865D01*
X0737677Y0105729D02*
X0738277Y0105129D01*
X0736447Y0104352D01*
X0734605Y0105097D01*
X0733828Y0106927D01*
X0734573Y0108769D01*
X0736403Y0109546D01*
X0738245Y0108801D01*
X0739022Y0106971D01*
X0738277Y0105129D01*
X0737583Y0105812D01*
X0736438Y0105326D01*
X0735288Y0105791D01*
X0734802Y0106936D01*
X0735267Y0108086D01*
X0736412Y0108572D01*
X0737562Y0108107D01*
X0738048Y0106962D01*
X0737583Y0105812D01*
X0736888Y0106495D01*
X0736430Y0106300D01*
X0735971Y0106486D01*
X0735776Y0106944D01*
X0735962Y0107403D01*
X0736420Y0107598D01*
X0736879Y0107412D01*
X0737074Y0106954D01*
X0736888Y0106495D01*
X0774764Y0090745D02*
X0775364Y0090145D01*
X0773534Y0089368D01*
X0771692Y0090113D01*
X0770915Y0091943D01*
X0771660Y0093785D01*
X0773490Y0094562D01*
X0775332Y0093817D01*
X0776109Y0091987D01*
X0775364Y0090145D01*
X0774670Y0090828D01*
X0773525Y0090342D01*
X0772375Y0090807D01*
X0771889Y0091952D01*
X0772354Y0093102D01*
X0773499Y0093588D01*
X0774649Y0093123D01*
X0775135Y0091978D01*
X0774670Y0090828D01*
X0773975Y0091511D01*
X0773517Y0091316D01*
X0773058Y0091502D01*
X0772863Y0091960D01*
X0773049Y0092419D01*
X0773507Y0092614D01*
X0773966Y0092428D01*
X0774161Y0091970D01*
X0773975Y0091511D01*
D15*
X0551937Y0080803D02*
X0551937Y0074803D01*
X0541937Y0074803D02*
X0541937Y0080803D01*
X0531937Y0080803D02*
X0531937Y0074803D01*
X0521937Y0074803D02*
X0521937Y0080803D01*
X0511937Y0080803D02*
X0511937Y0074803D01*
X0501937Y0074803D02*
X0501937Y0080803D01*
X0491937Y0080803D02*
X0491937Y0074803D01*
X0481937Y0074803D02*
X0481937Y0080803D01*
X0471937Y0080803D02*
X0471937Y0074803D01*
X0461937Y0074803D02*
X0461937Y0080803D01*
D16*
X0407528Y0085835D03*
X0407528Y0065835D03*
X0407528Y0040559D03*
X0407528Y0020559D03*
X0626858Y0052213D03*
X0646858Y0052213D03*
X0685913Y0054181D03*
X0705913Y0054181D03*
X0744969Y0054181D03*
X0764969Y0054181D03*
X0166543Y0052213D03*
X0146543Y0052213D03*
X0107488Y0052213D03*
X0087488Y0052213D03*
X0048433Y0052213D03*
X0028433Y0052213D03*
D17*
X0249063Y0073866D03*
X0274654Y0054181D03*
X0445913Y0097094D03*
X0500244Y0097094D03*
D18*
X0309299Y0089614D03*
X0286858Y0110874D03*
X0383709Y0054181D03*
X0401425Y0054181D03*
X0471110Y0038827D03*
X0498276Y0038827D03*
X0537252Y0031740D03*
X0559693Y0050638D03*
M02*
