%
M48
M72
T01C0.03150
T02C0.03200
T03C0.03937
T04C0.04000
T05C0.04331
T06C0.12598
%
T01
X646858Y52213
X626858Y52213
X705913Y54181
X685913Y54181
X764969Y54181
X744969Y54181
X48433Y52213
X28433Y52213
X107488Y52213
X87488Y52213
X166543Y52213
X146543Y52213
X407528Y40559
X407528Y20559
X407528Y85835
X407528Y65835
T02
X18433Y30559
X58433Y30559
X77488Y30559
X117488Y30559
X136543Y30559
X176543Y30559
X429181Y10559
X429181Y50559
X415404Y58354
X450045Y78354
X734969Y30559
X774969Y30559
X675913Y30559
X715913Y30559
X616858Y30559
X656858Y30559
X20820Y87892
X58408Y101573
X77488Y99457
X117488Y99457
X136543Y99457
X176543Y99457
X358315Y10559
X358315Y50559
X347134Y95124
X367134Y60483
X736425Y106949
X773512Y91965
X675913Y99457
X715913Y99457
X616858Y99457
X656858Y99457
X641858Y77803
X631858Y77803
X700913Y77803
X690913Y77803
X759969Y77803
X749969Y77803
X43433Y77803
X33433Y77803
X102488Y77803
X92488Y77803
X161543Y77803
X151543Y77803
X381937Y35559
X381937Y25559
X381937Y80835
X381937Y70835
T03
X445913Y97094
X500244Y97094
X249063Y73866
X274654Y54181
T04
X461937Y77803
X471937Y77803
X481937Y77803
X491937Y77803
X501937Y77803
X511937Y77803
X521937Y77803
X531937Y77803
X541937Y77803
X551937Y77803
T05
X286858Y110874
X309299Y89614
X383709Y54181
X401425Y54181
X471110Y38827
X537252Y31740
X498276Y38827
X559693Y50638
T06
X14811Y109299
X14811Y14811
X778591Y14811
X778591Y109299
M30
